<?xml version="1.0" standalone="no"?><svg xmlns:xlink="http://www.w3.org/1999/xlink" xmlns="http://www.w3.org/2000/svg" viewBox="0 0 1920 725.3251390728477" preserveAspectRatio="xMaxYMax slice"><g transform="scale(1.271523178807947)"><rect x="0" y="0" width="1510" height="570.4444444444445" fill="#ffffff"/><circle cx="16.775" cy="16.775" r="3.355" fill="#fdfeff"/><circle cx="50.334999999999994" cy="16.775" r="3.355" fill="#e7f5ff"/><circle cx="83.885" cy="16.775" r="3.355" fill="#ffffc2"/><circle cx="117.44500000000001" cy="16.775" r="3.355" fill="#ff8f8f"/><circle cx="150.99499999999998" cy="16.775" r="3.355" fill="#4de13f"/><circle cx="184.55499999999998" cy="16.775" r="3.355" fill="#ffbbbb"/><circle cx="218.11499999999998" cy="16.775" r="3.355" fill="#3facff"/><circle cx="251.665" cy="16.775" r="3.355" fill="#c9f6c4"/><circle cx="285.225" cy="16.775" r="3.355" fill="#6bbfff"/><circle cx="318.77500000000003" cy="16.775" r="3.355" fill="#e3b2f4"/><circle cx="352.33500000000004" cy="16.775" r="3.355" fill="#ffff63"/><circle cx="385.885" cy="16.775" r="3.355" fill="#ff1717"/><circle cx="419.445" cy="16.775" r="3.355" fill="#bef4b9"/><circle cx="452.995" cy="16.775" r="3.355" fill="#e7fbe5"/><circle cx="486.555" cy="16.775" r="3.355" fill="#4ae03c"/><circle cx="520.115" cy="16.775" r="3.355" fill="#f5e3fb"/><circle cx="553.665" cy="16.775" r="3.355" fill="#63e457"/><circle cx="587.225" cy="16.775" r="3.355" fill="#ffff3e"/><circle cx="620.775" cy="16.775" r="3.355" fill="#9ad4ff"/><circle cx="654.335" cy="16.775" r="3.355" fill="#da9af0"/><circle cx="687.885" cy="16.775" r="3.355" fill="#71c2ff"/><circle cx="721.445" cy="16.775" r="3.355" fill="#ffffed"/><circle cx="754.995" cy="16.775" r="3.355" fill="#60bbff"/><circle cx="788.5550000000001" cy="16.775" r="3.355" fill="#0c96ff"/><circle cx="822.115" cy="16.775" r="3.355" fill="#cbf6c7"/><circle cx="855.665" cy="16.775" r="3.355" fill="#5db9ff"/><circle cx="889.225" cy="16.775" r="3.355" fill="#7ce972"/><circle cx="922.775" cy="16.775" r="3.355" fill="#fffffd"/><circle cx="956.335" cy="16.775" r="3.355" fill="#ffff49"/><circle cx="989.885" cy="16.775" r="3.355" fill="#d4ecff"/><circle cx="1023.445" cy="16.775" r="3.355" fill="#d181ed"/><circle cx="1056.9950000000001" cy="16.775" r="3.355" fill="#90ec87"/><circle cx="1090.555" cy="16.775" r="3.355" fill="#ff2727"/><circle cx="1124.115" cy="16.775" r="3.355" fill="#edcef8"/><circle cx="1157.665" cy="16.775" r="3.355" fill="#ebc8f7"/><circle cx="1191.225" cy="16.775" r="3.355" fill="#81e977"/><circle cx="1224.775" cy="16.775" r="3.355" fill="#fffff8"/><circle cx="1258.335" cy="16.775" r="3.355" fill="#6bbfff"/><circle cx="1291.885" cy="16.775" r="3.355" fill="#ffb5b5"/><circle cx="1325.445" cy="16.775" r="3.355" fill="#c3e5ff"/><circle cx="1358.9950000000001" cy="16.775" r="3.355" fill="#3add2b"/><circle cx="1392.555" cy="16.775" r="3.355" fill="#27a2ff"/><circle cx="1426.115" cy="16.775" r="3.355" fill="#ffff99"/><circle cx="1459.665" cy="16.775" r="3.355" fill="#f6e7fc"/><circle cx="1493.225" cy="16.775" r="3.355" fill="#c1e4ff"/><circle cx="16.775" cy="50.334999999999994" r="3.355" fill="#169aff"/><circle cx="50.334999999999994" cy="50.334999999999994" r="3.355" fill="#ffff52"/><circle cx="83.885" cy="50.334999999999994" r="3.355" fill="#ff3434"/><circle cx="117.44500000000001" cy="50.334999999999994" r="3.355" fill="#ffadad"/><circle cx="150.99499999999998" cy="50.334999999999994" r="3.355" fill="#d182ed"/><circle cx="184.55499999999998" cy="50.334999999999994" r="3.355" fill="#71e766"/><circle cx="218.11499999999998" cy="50.334999999999994" r="3.355" fill="#feffff"/><circle cx="251.665" cy="50.334999999999994" r="3.355" fill="#fffff3"/><circle cx="285.225" cy="50.334999999999994" r="3.355" fill="#9ed5ff"/><circle cx="318.77500000000003" cy="50.334999999999994" r="3.355" fill="#41de32"/><circle cx="352.33500000000004" cy="50.334999999999994" r="3.355" fill="#84caff"/><circle cx="385.885" cy="50.334999999999994" r="3.355" fill="#fffffb"/><circle cx="419.445" cy="50.334999999999994" r="3.355" fill="#ff8686"/><circle cx="452.995" cy="50.334999999999994" r="3.355" fill="#ffff86"/><circle cx="486.555" cy="50.334999999999994" r="3.355" fill="#26a1ff"/><circle cx="520.115" cy="50.334999999999994" r="3.355" fill="#edfcec"/><circle cx="553.665" cy="50.334999999999994" r="3.355" fill="#fefffe"/><circle cx="587.225" cy="50.334999999999994" r="3.355" fill="#efd2f9"/><circle cx="620.775" cy="50.334999999999994" r="3.355" fill="#b7f3b2"/><circle cx="654.335" cy="50.334999999999994" r="3.355" fill="#f4fdf3"/><circle cx="687.885" cy="50.334999999999994" r="3.355" fill="#e6bbf5"/><circle cx="721.445" cy="50.334999999999994" r="3.355" fill="#36dd26"/><circle cx="754.995" cy="50.334999999999994" r="3.355" fill="#ff2323"/><circle cx="788.5550000000001" cy="50.334999999999994" r="3.355" fill="#81c9ff"/><circle cx="822.115" cy="50.334999999999994" r="3.355" fill="#c5f5c0"/><circle cx="855.665" cy="50.334999999999994" r="3.355" fill="#ff0202"/><circle cx="889.225" cy="50.334999999999994" r="3.355" fill="#53b5ff"/><circle cx="922.775" cy="50.334999999999994" r="3.355" fill="#fffff8"/><circle cx="956.335" cy="50.334999999999994" r="3.355" fill="#ffffd3"/><circle cx="989.885" cy="50.334999999999994" r="3.355" fill="#3cabff"/><circle cx="1023.445" cy="50.334999999999994" r="3.355" fill="#d68fef"/><circle cx="1056.9950000000001" cy="50.334999999999994" r="3.355" fill="#adf1a7"/><circle cx="1090.555" cy="50.334999999999994" r="3.355" fill="#71c2ff"/><circle cx="1124.115" cy="50.334999999999994" r="3.355" fill="#ffff9d"/><circle cx="1157.665" cy="50.334999999999994" r="3.355" fill="#ffff5f"/><circle cx="1191.225" cy="50.334999999999994" r="3.355" fill="#a6f0a0"/><circle cx="1224.775" cy="50.334999999999994" r="3.355" fill="#ffff38"/><circle cx="1258.335" cy="50.334999999999994" r="3.355" fill="#ffff58"/><circle cx="1291.885" cy="50.334999999999994" r="3.355" fill="#a7f0a0"/><circle cx="1325.445" cy="50.334999999999994" r="3.355" fill="#e6f4ff"/><circle cx="1358.9950000000001" cy="50.334999999999994" r="3.355" fill="#7ae870"/><circle cx="1392.555" cy="50.334999999999994" r="3.355" fill="#ffff24"/><circle cx="1426.115" cy="50.334999999999994" r="3.355" fill="#0593ff"/><circle cx="1459.665" cy="50.334999999999994" r="3.355" fill="#ffff22"/><circle cx="1493.225" cy="50.334999999999994" r="3.355" fill="#b0ddff"/><circle cx="16.775" cy="83.885" r="3.355" fill="#0d96ff"/><circle cx="50.334999999999994" cy="83.885" r="3.355" fill="#dea3f2"/><circle cx="83.885" cy="83.885" r="3.355" fill="#ffff11"/><circle cx="117.44500000000001" cy="83.885" r="3.355" fill="#ff0000"/><circle cx="150.99499999999998" cy="83.885" r="3.355" fill="#da99f0"/><circle cx="184.55499999999998" cy="83.885" r="3.355" fill="#ff7c7c"/><circle cx="218.11499999999998" cy="83.885" r="3.355" fill="#ffbbbb"/><circle cx="251.665" cy="83.885" r="3.355" fill="#5fbaff"/><circle cx="285.225" cy="83.885" r="3.355" fill="#ffff91"/><circle cx="318.77500000000003" cy="83.885" r="3.355" fill="#eef8ff"/><circle cx="352.33500000000004" cy="83.885" r="3.355" fill="#8bcdff"/><circle cx="385.885" cy="83.885" r="3.355" fill="#f4e0fa"/><circle cx="419.445" cy="83.885" r="3.355" fill="#43df35"/><circle cx="452.995" cy="83.885" r="3.355" fill="#dea5f2"/><circle cx="486.555" cy="83.885" r="3.355" fill="#ffd3d3"/><circle cx="520.115" cy="83.885" r="3.355" fill="#f0d5f9"/><circle cx="553.665" cy="83.885" r="3.355" fill="#9cd4ff"/><circle cx="587.225" cy="83.885" r="3.355" fill="#fcf7fe"/><circle cx="620.775" cy="83.885" r="3.355" fill="#fff7f7"/><circle cx="654.335" cy="83.885" r="3.355" fill="#dcf9da"/><circle cx="687.885" cy="83.885" r="3.355" fill="#c8e7ff"/><circle cx="721.445" cy="83.885" r="3.355" fill="#cd75eb"/><circle cx="754.995" cy="83.885" r="3.355" fill="#dc9df1"/><circle cx="788.5550000000001" cy="83.885" r="3.355" fill="#fffff4"/><circle cx="822.115" cy="83.885" r="3.355" fill="#e7bef6"/><circle cx="855.665" cy="83.885" r="3.355" fill="#28da18"/><circle cx="889.225" cy="83.885" r="3.355" fill="#ffff10"/><circle cx="922.775" cy="83.885" r="3.355" fill="#ffff47"/><circle cx="956.335" cy="83.885" r="3.355" fill="#49e03b"/><circle cx="989.885" cy="83.885" r="3.355" fill="#ffff1f"/><circle cx="1023.445" cy="83.885" r="3.355" fill="#eac5f7"/><circle cx="1056.9950000000001" cy="83.885" r="3.355" fill="#ffff3e"/><circle cx="1090.555" cy="83.885" r="3.355" fill="#ffd3d3"/><circle cx="1124.115" cy="83.885" r="3.355" fill="#ffff4d"/><circle cx="1157.665" cy="83.885" r="3.355" fill="#ff2d2d"/><circle cx="1191.225" cy="83.885" r="3.355" fill="#ffefef"/><circle cx="1224.775" cy="83.885" r="3.355" fill="#eac4f7"/><circle cx="1258.335" cy="83.885" r="3.355" fill="#d17fed"/><circle cx="1291.885" cy="83.885" r="3.355" fill="#41df33"/><circle cx="1325.445" cy="83.885" r="3.355" fill="#ffffab"/><circle cx="1358.9950000000001" cy="83.885" r="3.355" fill="#47df38"/><circle cx="1392.555" cy="83.885" r="3.355" fill="#ffff03"/><circle cx="1426.115" cy="83.885" r="3.355" fill="#b5f2b0"/><circle cx="1459.665" cy="83.885" r="3.355" fill="#eff8ff"/><circle cx="1493.225" cy="83.885" r="3.355" fill="#28da18"/><circle cx="16.775" cy="117.44500000000001" r="3.355" fill="#ce79ec"/><circle cx="50.334999999999994" cy="117.44500000000001" r="3.355" fill="#ffc6c6"/><circle cx="83.885" cy="117.44500000000001" r="3.355" fill="#ff6a6a"/><circle cx="117.44500000000001" cy="117.44500000000001" r="3.355" fill="#ffcaca"/><circle cx="150.99499999999998" cy="117.44500000000001" r="3.355" fill="#ffff91"/><circle cx="184.55499999999998" cy="117.44500000000001" r="3.355" fill="#ff5454"/><circle cx="218.11499999999998" cy="117.44500000000001" r="3.355" fill="#5de350"/><circle cx="251.665" cy="117.44500000000001" r="3.355" fill="#fffff2"/><circle cx="285.225" cy="117.44500000000001" r="3.355" fill="#ff2525"/><circle cx="318.77500000000003" cy="117.44500000000001" r="3.355" fill="#ffff30"/><circle cx="352.33500000000004" cy="117.44500000000001" r="3.355" fill="#d0ebff"/><circle cx="385.885" cy="117.44500000000001" r="3.355" fill="#ffffb0"/><circle cx="419.445" cy="117.44500000000001" r="3.355" fill="#ffff8c"/><circle cx="452.995" cy="117.44500000000001" r="3.355" fill="#48b0ff"/><circle cx="486.555" cy="117.44500000000001" r="3.355" fill="#38dd28"/><circle cx="520.115" cy="117.44500000000001" r="3.355" fill="#5ae34d"/><circle cx="553.665" cy="117.44500000000001" r="3.355" fill="#c3f5bf"/><circle cx="587.225" cy="117.44500000000001" r="3.355" fill="#eafbe8"/><circle cx="620.775" cy="117.44500000000001" r="3.355" fill="#a1d6ff"/><circle cx="654.335" cy="117.44500000000001" r="3.355" fill="#e5f4ff"/><circle cx="687.885" cy="117.44500000000001" r="3.355" fill="#ff3e3e"/><circle cx="721.445" cy="117.44500000000001" r="3.355" fill="#f5e4fb"/><circle cx="754.995" cy="117.44500000000001" r="3.355" fill="#ffff5b"/><circle cx="788.5550000000001" cy="117.44500000000001" r="3.355" fill="#ffc2c2"/><circle cx="822.115" cy="117.44500000000001" r="3.355" fill="#ff5e5e"/><circle cx="855.665" cy="117.44500000000001" r="3.355" fill="#fffcfc"/><circle cx="889.225" cy="117.44500000000001" r="3.355" fill="#adf1a6"/><circle cx="922.775" cy="117.44500000000001" r="3.355" fill="#8ccdff"/><circle cx="956.335" cy="117.44500000000001" r="3.355" fill="#34dc25"/><circle cx="989.885" cy="117.44500000000001" r="3.355" fill="#ffffeb"/><circle cx="1023.445" cy="117.44500000000001" r="3.355" fill="#d07dec"/><circle cx="1056.9950000000001" cy="117.44500000000001" r="3.355" fill="#f6e6fb"/><circle cx="1090.555" cy="117.44500000000001" r="3.355" fill="#0a95ff"/><circle cx="1124.115" cy="117.44500000000001" r="3.355" fill="#d894f0"/><circle cx="1157.665" cy="117.44500000000001" r="3.355" fill="#cc72eb"/><circle cx="1191.225" cy="117.44500000000001" r="3.355" fill="#69beff"/><circle cx="1224.775" cy="117.44500000000001" r="3.355" fill="#ffff70"/><circle cx="1258.335" cy="117.44500000000001" r="3.355" fill="#ff3c3c"/><circle cx="1291.885" cy="117.44500000000001" r="3.355" fill="#ffffb0"/><circle cx="1325.445" cy="117.44500000000001" r="3.355" fill="#eac5f7"/><circle cx="1358.9950000000001" cy="117.44500000000001" r="3.355" fill="#45df37"/><circle cx="1392.555" cy="117.44500000000001" r="3.355" fill="#ffffc0"/><circle cx="1426.115" cy="117.44500000000001" r="3.355" fill="#f6e6fb"/><circle cx="1459.665" cy="117.44500000000001" r="3.355" fill="#ffffbf"/><circle cx="1493.225" cy="117.44500000000001" r="3.355" fill="#4ae03c"/><circle cx="16.775" cy="150.99499999999998" r="3.355" fill="#dfa6f2"/><circle cx="50.334999999999994" cy="150.99499999999998" r="3.355" fill="#26da15"/><circle cx="83.885" cy="150.99499999999998" r="3.355" fill="#ffa8a8"/><circle cx="117.44500000000001" cy="150.99499999999998" r="3.355" fill="#ff2b2b"/><circle cx="150.99499999999998" cy="150.99499999999998" r="3.355" fill="#ff9999"/><circle cx="184.55499999999998" cy="150.99499999999998" r="3.355" fill="#dfa7f2"/><circle cx="218.11499999999998" cy="150.99499999999998" r="3.355" fill="#ffffb1"/><circle cx="251.665" cy="150.99499999999998" r="3.355" fill="#f9fef9"/><circle cx="285.225" cy="150.99499999999998" r="3.355" fill="#fcf6fe"/><circle cx="318.77500000000003" cy="150.99499999999998" r="3.355" fill="#ffff29"/><circle cx="352.33500000000004" cy="150.99499999999998" r="3.355" fill="#1f9eff"/><circle cx="385.885" cy="150.99499999999998" r="3.355" fill="#ffbdbd"/><circle cx="419.445" cy="150.99499999999998" r="3.355" fill="#44afff"/><circle cx="452.995" cy="150.99499999999998" r="3.355" fill="#d1f7cd"/><circle cx="486.555" cy="150.99499999999998" r="3.355" fill="#ffd7d7"/><circle cx="520.115" cy="150.99499999999998" r="3.355" fill="#76e76b"/><circle cx="553.665" cy="150.99499999999998" r="3.355" fill="#ff1d1d"/><circle cx="587.225" cy="150.99499999999998" r="3.355" fill="#ff6868"/><circle cx="620.775" cy="150.99499999999998" r="3.355" fill="#d5f8d1"/><circle cx="654.335" cy="150.99499999999998" r="3.355" fill="#eaf6ff"/><circle cx="687.885" cy="150.99499999999998" r="3.355" fill="#f3faff"/><circle cx="721.445" cy="150.99499999999998" r="3.355" fill="#dfa8f2"/><circle cx="754.995" cy="150.99499999999998" r="3.355" fill="#32dc23"/><circle cx="788.5550000000001" cy="150.99499999999998" r="3.355" fill="#ff2d2d"/><circle cx="822.115" cy="150.99499999999998" r="3.355" fill="#f3ddfa"/><circle cx="855.665" cy="150.99499999999998" r="3.355" fill="#71e767"/><circle cx="889.225" cy="150.99499999999998" r="3.355" fill="#e2aef3"/><circle cx="922.775" cy="150.99499999999998" r="3.355" fill="#ffd0d0"/><circle cx="956.335" cy="150.99499999999998" r="3.355" fill="#a6f0a0"/><circle cx="989.885" cy="150.99499999999998" r="3.355" fill="#fbf5fe"/><circle cx="1023.445" cy="150.99499999999998" r="3.355" fill="#76c4ff"/><circle cx="1056.9950000000001" cy="150.99499999999998" r="3.355" fill="#a6f09f"/><circle cx="1090.555" cy="150.99499999999998" r="3.355" fill="#d894f0"/><circle cx="1124.115" cy="150.99499999999998" r="3.355" fill="#fff5f5"/><circle cx="1157.665" cy="150.99499999999998" r="3.355" fill="#bcf4b7"/><circle cx="1191.225" cy="150.99499999999998" r="3.355" fill="#ff4a4a"/><circle cx="1224.775" cy="150.99499999999998" r="3.355" fill="#7ee975"/><circle cx="1258.335" cy="150.99499999999998" r="3.355" fill="#6fe664"/><circle cx="1291.885" cy="150.99499999999998" r="3.355" fill="#4be03d"/><circle cx="1325.445" cy="150.99499999999998" r="3.355" fill="#ffff13"/><circle cx="1358.9950000000001" cy="150.99499999999998" r="3.355" fill="#35a8ff"/><circle cx="1392.555" cy="150.99499999999998" r="3.355" fill="#ffffcf"/><circle cx="1426.115" cy="150.99499999999998" r="3.355" fill="#ff6666"/><circle cx="1459.665" cy="150.99499999999998" r="3.355" fill="#ffe2e2"/><circle cx="1493.225" cy="150.99499999999998" r="3.355" fill="#ff0404"/><circle cx="16.775" cy="184.55499999999998" r="3.355" fill="#86cbff"/><circle cx="50.334999999999994" cy="184.55499999999998" r="3.355" fill="#ffffc8"/><circle cx="83.885" cy="184.55499999999998" r="3.355" fill="#ffffab"/><circle cx="117.44500000000001" cy="184.55499999999998" r="3.355" fill="#ffff28"/><circle cx="150.99499999999998" cy="184.55499999999998" r="3.355" fill="#d180ed"/><circle cx="184.55499999999998" cy="184.55499999999998" r="3.355" fill="#eccaf7"/><circle cx="218.11499999999998" cy="184.55499999999998" r="3.355" fill="#ff5757"/><circle cx="251.665" cy="184.55499999999998" r="3.355" fill="#e0aaf3"/><circle cx="285.225" cy="184.55499999999998" r="3.355" fill="#fffff3"/><circle cx="318.77500000000003" cy="184.55499999999998" r="3.355" fill="#ffff62"/><circle cx="352.33500000000004" cy="184.55499999999998" r="3.355" fill="#d282ed"/><circle cx="385.885" cy="184.55499999999998" r="3.355" fill="#cfeaff"/><circle cx="419.445" cy="184.55499999999998" r="3.355" fill="#b4deff"/><circle cx="452.995" cy="184.55499999999998" r="3.355" fill="#c0f4bb"/><circle cx="486.555" cy="184.55499999999998" r="3.355" fill="#db9cf1"/><circle cx="520.115" cy="184.55499999999998" r="3.355" fill="#ffffb8"/><circle cx="553.665" cy="184.55499999999998" r="3.355" fill="#e1acf3"/><circle cx="587.225" cy="184.55499999999998" r="3.355" fill="#ffd5d5"/><circle cx="620.775" cy="184.55499999999998" r="3.355" fill="#8eec85"/><circle cx="654.335" cy="184.55499999999998" r="3.355" fill="#ffff62"/><circle cx="687.885" cy="184.55499999999998" r="3.355" fill="#ff3e3e"/><circle cx="721.445" cy="184.55499999999998" r="3.355" fill="#ffafaf"/><circle cx="754.995" cy="184.55499999999998" r="3.355" fill="#5ce350"/><circle cx="788.5550000000001" cy="184.55499999999998" r="3.355" fill="#43aeff"/><circle cx="822.115" cy="184.55499999999998" r="3.355" fill="#ffff10"/><circle cx="855.665" cy="184.55499999999998" r="3.355" fill="#f3defa"/><circle cx="889.225" cy="184.55499999999998" r="3.355" fill="#ff9c9c"/><circle cx="922.775" cy="184.55499999999998" r="3.355" fill="#73e769"/><circle cx="956.335" cy="184.55499999999998" r="3.355" fill="#75e76b"/><circle cx="989.885" cy="184.55499999999998" r="3.355" fill="#c5f5c0"/><circle cx="1023.445" cy="184.55499999999998" r="3.355" fill="#ffffe0"/><circle cx="1056.9950000000001" cy="184.55499999999998" r="3.355" fill="#c7f5c2"/><circle cx="1090.555" cy="184.55499999999998" r="3.355" fill="#b6f2b0"/><circle cx="1124.115" cy="184.55499999999998" r="3.355" fill="#fffffe"/><circle cx="1157.665" cy="184.55499999999998" r="3.355" fill="#e5f4ff"/><circle cx="1191.225" cy="184.55499999999998" r="3.355" fill="#eccbf8"/><circle cx="1224.775" cy="184.55499999999998" r="3.355" fill="#ff5b5b"/><circle cx="1258.335" cy="184.55499999999998" r="3.355" fill="#f1fdf0"/><circle cx="1291.885" cy="184.55499999999998" r="3.355" fill="#d996f0"/><circle cx="1325.445" cy="184.55499999999998" r="3.355" fill="#ff7474"/><circle cx="1358.9950000000001" cy="184.55499999999998" r="3.355" fill="#d2ecff"/><circle cx="1392.555" cy="184.55499999999998" r="3.355" fill="#f1fdf0"/><circle cx="1426.115" cy="184.55499999999998" r="3.355" fill="#eaf6ff"/><circle cx="1459.665" cy="184.55499999999998" r="3.355" fill="#3ede2f"/><circle cx="1493.225" cy="184.55499999999998" r="3.355" fill="#f7fef6"/><circle cx="16.775" cy="218.11499999999998" r="3.355" fill="#7be870"/><circle cx="50.334999999999994" cy="218.11499999999998" r="3.355" fill="#fcf5fe"/><circle cx="83.885" cy="218.11499999999998" r="3.355" fill="#ffff2a"/><circle cx="117.44500000000001" cy="218.11499999999998" r="3.355" fill="#ffff13"/><circle cx="150.99499999999998" cy="218.11499999999998" r="3.355" fill="#e6f4ff"/><circle cx="184.55499999999998" cy="218.11499999999998" r="3.355" fill="#d387ee"/><circle cx="218.11499999999998" cy="218.11499999999998" r="3.355" fill="#89eb80"/><circle cx="251.665" cy="218.11499999999998" r="3.355" fill="#ffffdf"/><circle cx="285.225" cy="218.11499999999998" r="3.355" fill="#0392ff"/><circle cx="318.77500000000003" cy="218.11499999999998" r="3.355" fill="#b8f3b3"/><circle cx="352.33500000000004" cy="218.11499999999998" r="3.355" fill="#acf1a6"/><circle cx="385.885" cy="218.11499999999998" r="3.355" fill="#daefff"/><circle cx="419.445" cy="218.11499999999998" r="3.355" fill="#ff7d7d"/><circle cx="452.995" cy="218.11499999999998" r="3.355" fill="#ff2222"/><circle cx="486.555" cy="218.11499999999998" r="3.355" fill="#37dd28"/><circle cx="520.115" cy="218.11499999999998" r="3.355" fill="#ffff6f"/><circle cx="553.665" cy="218.11499999999998" r="3.355" fill="#c2e4ff"/><circle cx="587.225" cy="218.11499999999998" r="3.355" fill="#d488ee"/><circle cx="620.775" cy="218.11499999999998" r="3.355" fill="#ffffb2"/><circle cx="654.335" cy="218.11499999999998" r="3.355" fill="#c5e6ff"/><circle cx="687.885" cy="218.11499999999998" r="3.355" fill="#f3defa"/><circle cx="721.445" cy="218.11499999999998" r="3.355" fill="#92d0ff"/><circle cx="754.995" cy="218.11499999999998" r="3.355" fill="#afddff"/><circle cx="788.5550000000001" cy="218.11499999999998" r="3.355" fill="#ffff45"/><circle cx="822.115" cy="218.11499999999998" r="3.355" fill="#ff6d6d"/><circle cx="855.665" cy="218.11499999999998" r="3.355" fill="#ff3232"/><circle cx="889.225" cy="218.11499999999998" r="3.355" fill="#79e86f"/><circle cx="922.775" cy="218.11499999999998" r="3.355" fill="#44df36"/><circle cx="956.335" cy="218.11499999999998" r="3.355" fill="#ffe7e7"/><circle cx="989.885" cy="218.11499999999998" r="3.355" fill="#ffffd8"/><circle cx="1023.445" cy="218.11499999999998" r="3.355" fill="#f7eafc"/><circle cx="1056.9950000000001" cy="218.11499999999998" r="3.355" fill="#ffff4f"/><circle cx="1090.555" cy="218.11499999999998" r="3.355" fill="#f9edfc"/><circle cx="1124.115" cy="218.11499999999998" r="3.355" fill="#ff8a8a"/><circle cx="1157.665" cy="218.11499999999998" r="3.355" fill="#ffc3c3"/><circle cx="1191.225" cy="218.11499999999998" r="3.355" fill="#ff3636"/><circle cx="1224.775" cy="218.11499999999998" r="3.355" fill="#ffffd1"/><circle cx="1258.335" cy="218.11499999999998" r="3.355" fill="#f8ebfc"/><circle cx="1291.885" cy="218.11499999999998" r="3.355" fill="#50e143"/><circle cx="1325.445" cy="218.11499999999998" r="3.355" fill="#ff0a0a"/><circle cx="1358.9950000000001" cy="218.11499999999998" r="3.355" fill="#ffff94"/><circle cx="1392.555" cy="218.11499999999998" r="3.355" fill="#ffff52"/><circle cx="1426.115" cy="218.11499999999998" r="3.355" fill="#caf6c6"/><circle cx="1459.665" cy="218.11499999999998" r="3.355" fill="#ff7575"/><circle cx="1493.225" cy="218.11499999999998" r="3.355" fill="#e7bcf5"/><circle cx="16.775" cy="251.665" r="3.355" fill="#199cff"/><circle cx="50.334999999999994" cy="251.665" r="3.355" fill="#edccf8"/><circle cx="83.885" cy="251.665" r="3.355" fill="#f4dffa"/><circle cx="117.44500000000001" cy="251.665" r="3.355" fill="#95ed8c"/><circle cx="150.99499999999998" cy="251.665" r="3.355" fill="#76e86c"/><circle cx="184.55499999999998" cy="251.665" r="3.355" fill="#f3ddfa"/><circle cx="218.11499999999998" cy="251.665" r="3.355" fill="#149aff"/><circle cx="251.665" cy="251.665" r="3.355" fill="#ff9393"/><circle cx="285.225" cy="251.665" r="3.355" fill="#dff1ff"/><circle cx="318.77500000000003" cy="251.665" r="3.355" fill="#ffffdc"/><circle cx="352.33500000000004" cy="251.665" r="3.355" fill="#ff9d9d"/><circle cx="385.885" cy="251.665" r="3.355" fill="#8accff"/><circle cx="419.445" cy="251.665" r="3.355" fill="#acf1a5"/><circle cx="452.995" cy="251.665" r="3.355" fill="#ff1414"/><circle cx="486.555" cy="251.665" r="3.355" fill="#ffffb3"/><circle cx="520.115" cy="251.665" r="3.355" fill="#ff1d1d"/><circle cx="553.665" cy="251.665" r="3.355" fill="#ff7272"/><circle cx="587.225" cy="251.665" r="3.355" fill="#8fcfff"/><circle cx="620.775" cy="251.665" r="3.355" fill="#b3f2ad"/><circle cx="654.335" cy="251.665" r="3.355" fill="#5be34e"/><circle cx="687.885" cy="251.665" r="3.355" fill="#e0f2ff"/><circle cx="721.445" cy="251.665" r="3.355" fill="#fffff1"/><circle cx="754.995" cy="251.665" r="3.355" fill="#ffffd8"/><circle cx="788.5550000000001" cy="251.665" r="3.355" fill="#e8c0f6"/><circle cx="822.115" cy="251.665" r="3.355" fill="#ff3838"/><circle cx="855.665" cy="251.665" r="3.355" fill="#ffe8e8"/><circle cx="889.225" cy="251.665" r="3.355" fill="#ffff34"/><circle cx="922.775" cy="251.665" r="3.355" fill="#f7e9fc"/><circle cx="956.335" cy="251.665" r="3.355" fill="#4ab1ff"/><circle cx="989.885" cy="251.665" r="3.355" fill="#56e249"/><circle cx="1023.445" cy="251.665" r="3.355" fill="#c2f5bd"/><circle cx="1056.9950000000001" cy="251.665" r="3.355" fill="#acf1a6"/><circle cx="1090.555" cy="251.665" r="3.355" fill="#fffcfc"/><circle cx="1124.115" cy="251.665" r="3.355" fill="#ff7979"/><circle cx="1157.665" cy="251.665" r="3.355" fill="#74c3ff"/><circle cx="1191.225" cy="251.665" r="3.355" fill="#efd2f9"/><circle cx="1224.775" cy="251.665" r="3.355" fill="#f1dafa"/><circle cx="1258.335" cy="251.665" r="3.355" fill="#d181ed"/><circle cx="1291.885" cy="251.665" r="3.355" fill="#89ccff"/><circle cx="1325.445" cy="251.665" r="3.355" fill="#b3f2ad"/><circle cx="1358.9950000000001" cy="251.665" r="3.355" fill="#ffffbb"/><circle cx="1392.555" cy="251.665" r="3.355" fill="#61e455"/><circle cx="1426.115" cy="251.665" r="3.355" fill="#e9c3f6"/><circle cx="1459.665" cy="251.665" r="3.355" fill="#ff9191"/><circle cx="1493.225" cy="251.665" r="3.355" fill="#fafef9"/><circle cx="16.775" cy="285.225" r="3.355" fill="#dda2f2"/><circle cx="50.334999999999994" cy="285.225" r="3.355" fill="#ffffcf"/><circle cx="83.885" cy="285.225" r="3.355" fill="#7de973"/><circle cx="117.44500000000001" cy="285.225" r="3.355" fill="#189bff"/><circle cx="150.99499999999998" cy="285.225" r="3.355" fill="#f6fbff"/><circle cx="184.55499999999998" cy="285.225" r="3.355" fill="#f9edfc"/><circle cx="218.11499999999998" cy="285.225" r="3.355" fill="#46afff"/><circle cx="251.665" cy="285.225" r="3.355" fill="#a7f0a0"/><circle cx="285.225" cy="285.225" r="3.355" fill="#6cbfff"/><circle cx="318.77500000000003" cy="285.225" r="3.355" fill="#ffff26"/><circle cx="352.33500000000004" cy="285.225" r="3.355" fill="#ffa6a6"/><circle cx="385.885" cy="285.225" r="3.355" fill="#7be870"/><circle cx="419.445" cy="285.225" r="3.355" fill="#ffb9b9"/><circle cx="452.995" cy="285.225" r="3.355" fill="#eafbe9"/><circle cx="486.555" cy="285.225" r="3.355" fill="#c1f4bc"/><circle cx="520.115" cy="285.225" r="3.355" fill="#f2f9ff"/><circle cx="553.665" cy="285.225" r="3.355" fill="#dda1f1"/><circle cx="587.225" cy="285.225" r="3.355" fill="#ff0909"/><circle cx="620.775" cy="285.225" r="3.355" fill="#ffffa6"/><circle cx="654.335" cy="285.225" r="3.355" fill="#ff4848"/><circle cx="687.885" cy="285.225" r="3.355" fill="#45afff"/><circle cx="721.445" cy="285.225" r="3.355" fill="#ff6a6a"/><circle cx="754.995" cy="285.225" r="3.355" fill="#afddff"/><circle cx="788.5550000000001" cy="285.225" r="3.355" fill="#75e76a"/><circle cx="822.115" cy="285.225" r="3.355" fill="#ff4b4b"/><circle cx="855.665" cy="285.225" r="3.355" fill="#ffa3a3"/><circle cx="889.225" cy="285.225" r="3.355" fill="#5ee352"/><circle cx="922.775" cy="285.225" r="3.355" fill="#ffff57"/><circle cx="956.335" cy="285.225" r="3.355" fill="#d58cef"/><circle cx="989.885" cy="285.225" r="3.355" fill="#ffff83"/><circle cx="1023.445" cy="285.225" r="3.355" fill="#a2ef9b"/><circle cx="1056.9950000000001" cy="285.225" r="3.355" fill="#1098ff"/><circle cx="1090.555" cy="285.225" r="3.355" fill="#ff9e9e"/><circle cx="1124.115" cy="285.225" r="3.355" fill="#e1adf3"/><circle cx="1157.665" cy="285.225" r="3.355" fill="#ffff79"/><circle cx="1191.225" cy="285.225" r="3.355" fill="#c8e7ff"/><circle cx="1224.775" cy="285.225" r="3.355" fill="#ffff23"/><circle cx="1258.335" cy="285.225" r="3.355" fill="#daefff"/><circle cx="1291.885" cy="285.225" r="3.355" fill="#ffffc6"/><circle cx="1325.445" cy="285.225" r="3.355" fill="#d283ed"/><circle cx="1358.9950000000001" cy="285.225" r="3.355" fill="#b7e0ff"/><circle cx="1392.555" cy="285.225" r="3.355" fill="#ca6eea"/><circle cx="1426.115" cy="285.225" r="3.355" fill="#0b96ff"/><circle cx="1459.665" cy="285.225" r="3.355" fill="#ffffa4"/><circle cx="1493.225" cy="285.225" r="3.355" fill="#d182ed"/><circle cx="16.775" cy="318.77500000000003" r="3.355" fill="#ddf9da"/><circle cx="50.334999999999994" cy="318.77500000000003" r="3.355" fill="#ffff9e"/><circle cx="83.885" cy="318.77500000000003" r="3.355" fill="#a0ef99"/><circle cx="117.44500000000001" cy="318.77500000000003" r="3.355" fill="#6abfff"/><circle cx="150.99499999999998" cy="318.77500000000003" r="3.355" fill="#ffff0a"/><circle cx="184.55499999999998" cy="318.77500000000003" r="3.355" fill="#44df35"/><circle cx="218.11499999999998" cy="318.77500000000003" r="3.355" fill="#fffff2"/><circle cx="251.665" cy="318.77500000000003" r="3.355" fill="#ff0e0e"/><circle cx="285.225" cy="318.77500000000003" r="3.355" fill="#39dd2a"/><circle cx="318.77500000000003" cy="318.77500000000003" r="3.355" fill="#cd74eb"/><circle cx="352.33500000000004" cy="318.77500000000003" r="3.355" fill="#ff8989"/><circle cx="385.885" cy="318.77500000000003" r="3.355" fill="#ff9696"/><circle cx="419.445" cy="318.77500000000003" r="3.355" fill="#db9cf1"/><circle cx="452.995" cy="318.77500000000003" r="3.355" fill="#7cc6ff"/><circle cx="486.555" cy="318.77500000000003" r="3.355" fill="#ffff96"/><circle cx="520.115" cy="318.77500000000003" r="3.355" fill="#da99f0"/><circle cx="553.665" cy="318.77500000000003" r="3.355" fill="#ffe6e6"/><circle cx="587.225" cy="318.77500000000003" r="3.355" fill="#ffffae"/><circle cx="620.775" cy="318.77500000000003" r="3.355" fill="#ffe1e1"/><circle cx="654.335" cy="318.77500000000003" r="3.355" fill="#4be03e"/><circle cx="687.885" cy="318.77500000000003" r="3.355" fill="#ffefef"/><circle cx="721.445" cy="318.77500000000003" r="3.355" fill="#ff1313"/><circle cx="754.995" cy="318.77500000000003" r="3.355" fill="#feffff"/><circle cx="788.5550000000001" cy="318.77500000000003" r="3.355" fill="#fdfffd"/><circle cx="822.115" cy="318.77500000000003" r="3.355" fill="#f2dbfa"/><circle cx="855.665" cy="318.77500000000003" r="3.355" fill="#ffffb4"/><circle cx="889.225" cy="318.77500000000003" r="3.355" fill="#fff7f7"/><circle cx="922.775" cy="318.77500000000003" r="3.355" fill="#b0ddff"/><circle cx="956.335" cy="318.77500000000003" r="3.355" fill="#39dd2a"/><circle cx="989.885" cy="318.77500000000003" r="3.355" fill="#b6dfff"/><circle cx="1023.445" cy="318.77500000000003" r="3.355" fill="#d7f8d4"/><circle cx="1056.9950000000001" cy="318.77500000000003" r="3.355" fill="#ff4f4f"/><circle cx="1090.555" cy="318.77500000000003" r="3.355" fill="#dc9ef1"/><circle cx="1124.115" cy="318.77500000000003" r="3.355" fill="#ffffae"/><circle cx="1157.665" cy="318.77500000000003" r="3.355" fill="#5db9ff"/><circle cx="1191.225" cy="318.77500000000003" r="3.355" fill="#0895ff"/><circle cx="1224.775" cy="318.77500000000003" r="3.355" fill="#ffff6c"/><circle cx="1258.335" cy="318.77500000000003" r="3.355" fill="#f9fcff"/><circle cx="1291.885" cy="318.77500000000003" r="3.355" fill="#ff1e1e"/><circle cx="1325.445" cy="318.77500000000003" r="3.355" fill="#f7fef7"/><circle cx="1358.9950000000001" cy="318.77500000000003" r="3.355" fill="#ff1a1a"/><circle cx="1392.555" cy="318.77500000000003" r="3.355" fill="#34dc25"/><circle cx="1426.115" cy="318.77500000000003" r="3.355" fill="#ff9b9b"/><circle cx="1459.665" cy="318.77500000000003" r="3.355" fill="#97ed8f"/><circle cx="1493.225" cy="318.77500000000003" r="3.355" fill="#ffff76"/><circle cx="16.775" cy="352.33500000000004" r="3.355" fill="#ffe8e8"/><circle cx="50.334999999999994" cy="352.33500000000004" r="3.355" fill="#e2aff4"/><circle cx="83.885" cy="352.33500000000004" r="3.355" fill="#d5edff"/><circle cx="117.44500000000001" cy="352.33500000000004" r="3.355" fill="#afdcff"/><circle cx="150.99499999999998" cy="352.33500000000004" r="3.355" fill="#85caff"/><circle cx="184.55499999999998" cy="352.33500000000004" r="3.355" fill="#ff8e8e"/><circle cx="218.11499999999998" cy="352.33500000000004" r="3.355" fill="#e7bdf6"/><circle cx="251.665" cy="352.33500000000004" r="3.355" fill="#d489ee"/><circle cx="285.225" cy="352.33500000000004" r="3.355" fill="#b6dfff"/><circle cx="318.77500000000003" cy="352.33500000000004" r="3.355" fill="#58b7ff"/><circle cx="352.33500000000004" cy="352.33500000000004" r="3.355" fill="#fbfdff"/><circle cx="385.885" cy="352.33500000000004" r="3.355" fill="#e5b6f5"/><circle cx="419.445" cy="352.33500000000004" r="3.355" fill="#77e86d"/><circle cx="452.995" cy="352.33500000000004" r="3.355" fill="#fbfdff"/><circle cx="486.555" cy="352.33500000000004" r="3.355" fill="#ffff8c"/><circle cx="520.115" cy="352.33500000000004" r="3.355" fill="#dda3f2"/><circle cx="553.665" cy="352.33500000000004" r="3.355" fill="#ff8484"/><circle cx="587.225" cy="352.33500000000004" r="3.355" fill="#7ae870"/><circle cx="620.775" cy="352.33500000000004" r="3.355" fill="#e8c0f6"/><circle cx="654.335" cy="352.33500000000004" r="3.355" fill="#5cb9ff"/><circle cx="687.885" cy="352.33500000000004" r="3.355" fill="#ffffff"/><circle cx="721.445" cy="352.33500000000004" r="3.355" fill="#ff7a7a"/><circle cx="754.995" cy="352.33500000000004" r="3.355" fill="#1299ff"/><circle cx="788.5550000000001" cy="352.33500000000004" r="3.355" fill="#bae1ff"/><circle cx="822.115" cy="352.33500000000004" r="3.355" fill="#ffffb9"/><circle cx="855.665" cy="352.33500000000004" r="3.355" fill="#ff4949"/><circle cx="889.225" cy="352.33500000000004" r="3.355" fill="#25a1ff"/><circle cx="922.775" cy="352.33500000000004" r="3.355" fill="#d4f8d1"/><circle cx="956.335" cy="352.33500000000004" r="3.355" fill="#ffff5a"/><circle cx="989.885" cy="352.33500000000004" r="3.355" fill="#f7e8fc"/><circle cx="1023.445" cy="352.33500000000004" r="3.355" fill="#ffffbe"/><circle cx="1056.9950000000001" cy="352.33500000000004" r="3.355" fill="#89eb7f"/><circle cx="1090.555" cy="352.33500000000004" r="3.355" fill="#ff6f6f"/><circle cx="1124.115" cy="352.33500000000004" r="3.355" fill="#ff5353"/><circle cx="1157.665" cy="352.33500000000004" r="3.355" fill="#dc9ff1"/><circle cx="1191.225" cy="352.33500000000004" r="3.355" fill="#ff2626"/><circle cx="1224.775" cy="352.33500000000004" r="3.355" fill="#91ec89"/><circle cx="1258.335" cy="352.33500000000004" r="3.355" fill="#ff6363"/><circle cx="1291.885" cy="352.33500000000004" r="3.355" fill="#8bcdff"/><circle cx="1325.445" cy="352.33500000000004" r="3.355" fill="#ffdada"/><circle cx="1358.9950000000001" cy="352.33500000000004" r="3.355" fill="#ffff17"/><circle cx="1392.555" cy="352.33500000000004" r="3.355" fill="#f6e5fb"/><circle cx="1426.115" cy="352.33500000000004" r="3.355" fill="#ff0808"/><circle cx="1459.665" cy="352.33500000000004" r="3.355" fill="#ff3333"/><circle cx="1493.225" cy="352.33500000000004" r="3.355" fill="#cc72eb"/><circle cx="16.775" cy="385.885" r="3.355" fill="#a9f0a3"/><circle cx="50.334999999999994" cy="385.885" r="3.355" fill="#a9daff"/><circle cx="83.885" cy="385.885" r="3.355" fill="#ffffe9"/><circle cx="117.44500000000001" cy="385.885" r="3.355" fill="#ffff7b"/><circle cx="150.99499999999998" cy="385.885" r="3.355" fill="#e6fbe4"/><circle cx="184.55499999999998" cy="385.885" r="3.355" fill="#f0fcef"/><circle cx="218.11499999999998" cy="385.885" r="3.355" fill="#4be03e"/><circle cx="251.665" cy="385.885" r="3.355" fill="#eef8ff"/><circle cx="285.225" cy="385.885" r="3.355" fill="#ffb6b6"/><circle cx="318.77500000000003" cy="385.885" r="3.355" fill="#fafdff"/><circle cx="352.33500000000004" cy="385.885" r="3.355" fill="#cc74eb"/><circle cx="385.885" cy="385.885" r="3.355" fill="#82ea79"/><circle cx="419.445" cy="385.885" r="3.355" fill="#fffafa"/><circle cx="452.995" cy="385.885" r="3.355" fill="#dcf9d9"/><circle cx="486.555" cy="385.885" r="3.355" fill="#fffefe"/><circle cx="520.115" cy="385.885" r="3.355" fill="#fcf6fe"/><circle cx="553.665" cy="385.885" r="3.355" fill="#c4f5c0"/><circle cx="587.225" cy="385.885" r="3.355" fill="#ffff38"/><circle cx="620.775" cy="385.885" r="3.355" fill="#e9c3f6"/><circle cx="654.335" cy="385.885" r="3.355" fill="#e3b3f4"/><circle cx="687.885" cy="385.885" r="3.355" fill="#d893ef"/><circle cx="721.445" cy="385.885" r="3.355" fill="#69e55e"/><circle cx="754.995" cy="385.885" r="3.355" fill="#2bdb1a"/><circle cx="788.5550000000001" cy="385.885" r="3.355" fill="#ffb2b2"/><circle cx="822.115" cy="385.885" r="3.355" fill="#ff8c8c"/><circle cx="855.665" cy="385.885" r="3.355" fill="#ff7575"/><circle cx="889.225" cy="385.885" r="3.355" fill="#0191ff"/><circle cx="922.775" cy="385.885" r="3.355" fill="#d790ef"/><circle cx="956.335" cy="385.885" r="3.355" fill="#ff6161"/><circle cx="989.885" cy="385.885" r="3.355" fill="#41de32"/><circle cx="1023.445" cy="385.885" r="3.355" fill="#8aeb81"/><circle cx="1056.9950000000001" cy="385.885" r="3.355" fill="#cfeaff"/><circle cx="1090.555" cy="385.885" r="3.355" fill="#ffff1b"/><circle cx="1124.115" cy="385.885" r="3.355" fill="#ff0c0c"/><circle cx="1157.665" cy="385.885" r="3.355" fill="#ffff65"/><circle cx="1191.225" cy="385.885" r="3.355" fill="#ffffae"/><circle cx="1224.775" cy="385.885" r="3.355" fill="#21d910"/><circle cx="1258.335" cy="385.885" r="3.355" fill="#ffffae"/><circle cx="1291.885" cy="385.885" r="3.355" fill="#d07eec"/><circle cx="1325.445" cy="385.885" r="3.355" fill="#fdf8fe"/><circle cx="1358.9950000000001" cy="385.885" r="3.355" fill="#ffff8e"/><circle cx="1392.555" cy="385.885" r="3.355" fill="#ff6767"/><circle cx="1426.115" cy="385.885" r="3.355" fill="#ffff8a"/><circle cx="1459.665" cy="385.885" r="3.355" fill="#ffff95"/><circle cx="1493.225" cy="385.885" r="3.355" fill="#ffff9d"/><circle cx="16.775" cy="419.445" r="3.355" fill="#74c3ff"/><circle cx="50.334999999999994" cy="419.445" r="3.355" fill="#d790ef"/><circle cx="83.885" cy="419.445" r="3.355" fill="#ffc7c7"/><circle cx="117.44500000000001" cy="419.445" r="3.355" fill="#ff6c6c"/><circle cx="150.99499999999998" cy="419.445" r="3.355" fill="#fffff7"/><circle cx="184.55499999999998" cy="419.445" r="3.355" fill="#ffff22"/><circle cx="218.11499999999998" cy="419.445" r="3.355" fill="#ff7979"/><circle cx="251.665" cy="419.445" r="3.355" fill="#ff8686"/><circle cx="285.225" cy="419.445" r="3.355" fill="#ffffab"/><circle cx="318.77500000000003" cy="419.445" r="3.355" fill="#fdfffd"/><circle cx="352.33500000000004" cy="419.445" r="3.355" fill="#ffff10"/><circle cx="385.885" cy="419.445" r="3.355" fill="#ff2323"/><circle cx="419.445" cy="419.445" r="3.355" fill="#4de13f"/><circle cx="452.995" cy="419.445" r="3.355" fill="#ffff2c"/><circle cx="486.555" cy="419.445" r="3.355" fill="#ffff89"/><circle cx="520.115" cy="419.445" r="3.355" fill="#eac6f7"/><circle cx="553.665" cy="419.445" r="3.355" fill="#ff8d8d"/><circle cx="587.225" cy="419.445" r="3.355" fill="#ff6060"/><circle cx="620.775" cy="419.445" r="3.355" fill="#bff4ba"/><circle cx="654.335" cy="419.445" r="3.355" fill="#6bbfff"/><circle cx="687.885" cy="419.445" r="3.355" fill="#35dc25"/><circle cx="721.445" cy="419.445" r="3.355" fill="#ffffdb"/><circle cx="754.995" cy="419.445" r="3.355" fill="#c0e4ff"/><circle cx="788.5550000000001" cy="419.445" r="3.355" fill="#e0a9f3"/><circle cx="822.115" cy="419.445" r="3.355" fill="#84caff"/><circle cx="855.665" cy="419.445" r="3.355" fill="#f3ddfa"/><circle cx="889.225" cy="419.445" r="3.355" fill="#ff9c9c"/><circle cx="922.775" cy="419.445" r="3.355" fill="#e3fae1"/><circle cx="956.335" cy="419.445" r="3.355" fill="#d68fef"/><circle cx="989.885" cy="419.445" r="3.355" fill="#d07fed"/><circle cx="1023.445" cy="419.445" r="3.355" fill="#ffdcdc"/><circle cx="1056.9950000000001" cy="419.445" r="3.355" fill="#faf1fd"/><circle cx="1090.555" cy="419.445" r="3.355" fill="#ffb9b9"/><circle cx="1124.115" cy="419.445" r="3.355" fill="#56b6ff"/><circle cx="1157.665" cy="419.445" r="3.355" fill="#ffff0c"/><circle cx="1191.225" cy="419.445" r="3.355" fill="#f6e7fc"/><circle cx="1224.775" cy="419.445" r="3.355" fill="#ff2222"/><circle cx="1258.335" cy="419.445" r="3.355" fill="#eccbf7"/><circle cx="1291.885" cy="419.445" r="3.355" fill="#81e978"/><circle cx="1325.445" cy="419.445" r="3.355" fill="#ffffab"/><circle cx="1358.9950000000001" cy="419.445" r="3.355" fill="#22d911"/><circle cx="1392.555" cy="419.445" r="3.355" fill="#c7e7ff"/><circle cx="1426.115" cy="419.445" r="3.355" fill="#ffbfbf"/><circle cx="1459.665" cy="419.445" r="3.355" fill="#f0d5f9"/><circle cx="1493.225" cy="419.445" r="3.355" fill="#58b7ff"/><circle cx="16.775" cy="452.995" r="3.355" fill="#ffd4d4"/><circle cx="50.334999999999994" cy="452.995" r="3.355" fill="#d284ed"/><circle cx="83.885" cy="452.995" r="3.355" fill="#9dd5ff"/><circle cx="117.44500000000001" cy="452.995" r="3.355" fill="#ffff71"/><circle cx="150.99499999999998" cy="452.995" r="3.355" fill="#0392ff"/><circle cx="184.55499999999998" cy="452.995" r="3.355" fill="#e2aff4"/><circle cx="218.11499999999998" cy="452.995" r="3.355" fill="#75c4ff"/><circle cx="251.665" cy="452.995" r="3.355" fill="#6cc0ff"/><circle cx="285.225" cy="452.995" r="3.355" fill="#f1d9fa"/><circle cx="318.77500000000003" cy="452.995" r="3.355" fill="#ffb7b7"/><circle cx="352.33500000000004" cy="452.995" r="3.355" fill="#d4f8d1"/><circle cx="385.885" cy="452.995" r="3.355" fill="#189bff"/><circle cx="419.445" cy="452.995" r="3.355" fill="#e6baf5"/><circle cx="452.995" cy="452.995" r="3.355" fill="#ff7171"/><circle cx="486.555" cy="452.995" r="3.355" fill="#98ed90"/><circle cx="520.115" cy="452.995" r="3.355" fill="#ffff20"/><circle cx="553.665" cy="452.995" r="3.355" fill="#45afff"/><circle cx="587.225" cy="452.995" r="3.355" fill="#43aeff"/><circle cx="620.775" cy="452.995" r="3.355" fill="#cef7ca"/><circle cx="654.335" cy="452.995" r="3.355" fill="#fffffb"/><circle cx="687.885" cy="452.995" r="3.355" fill="#ffc4c4"/><circle cx="721.445" cy="452.995" r="3.355" fill="#67e55b"/><circle cx="754.995" cy="452.995" r="3.355" fill="#ff7676"/><circle cx="788.5550000000001" cy="452.995" r="3.355" fill="#b7e0ff"/><circle cx="822.115" cy="452.995" r="3.355" fill="#ffffea"/><circle cx="855.665" cy="452.995" r="3.355" fill="#c7e7ff"/><circle cx="889.225" cy="452.995" r="3.355" fill="#9ad3ff"/><circle cx="922.775" cy="452.995" r="3.355" fill="#ff8585"/><circle cx="956.335" cy="452.995" r="3.355" fill="#ff0f0f"/><circle cx="989.885" cy="452.995" r="3.355" fill="#f5e3fb"/><circle cx="1023.445" cy="452.995" r="3.355" fill="#ffff83"/><circle cx="1056.9950000000001" cy="452.995" r="3.355" fill="#ff8d8d"/><circle cx="1090.555" cy="452.995" r="3.355" fill="#ffff8a"/><circle cx="1124.115" cy="452.995" r="3.355" fill="#ffff58"/><circle cx="1157.665" cy="452.995" r="3.355" fill="#ffd0d0"/><circle cx="1191.225" cy="452.995" r="3.355" fill="#64e458"/><circle cx="1224.775" cy="452.995" r="3.355" fill="#d7f8d4"/><circle cx="1258.335" cy="452.995" r="3.355" fill="#dc9ef1"/><circle cx="1291.885" cy="452.995" r="3.355" fill="#edcef8"/><circle cx="1325.445" cy="452.995" r="3.355" fill="#a8f0a2"/><circle cx="1358.9950000000001" cy="452.995" r="3.355" fill="#96ed8e"/><circle cx="1392.555" cy="452.995" r="3.355" fill="#82ea78"/><circle cx="1426.115" cy="452.995" r="3.355" fill="#a9daff"/><circle cx="1459.665" cy="452.995" r="3.355" fill="#f3faff"/><circle cx="1493.225" cy="452.995" r="3.355" fill="#ffff23"/><circle cx="16.775" cy="486.555" r="3.355" fill="#2ada19"/><circle cx="50.334999999999994" cy="486.555" r="3.355" fill="#eccbf8"/><circle cx="83.885" cy="486.555" r="3.355" fill="#d790ef"/><circle cx="117.44500000000001" cy="486.555" r="3.355" fill="#4ce03f"/><circle cx="150.99499999999998" cy="486.555" r="3.355" fill="#ff7373"/><circle cx="184.55499999999998" cy="486.555" r="3.355" fill="#e8f5ff"/><circle cx="218.11499999999998" cy="486.555" r="3.355" fill="#ff5f5f"/><circle cx="251.665" cy="486.555" r="3.355" fill="#e3b1f4"/><circle cx="285.225" cy="486.555" r="3.355" fill="#ff2e2e"/><circle cx="318.77500000000003" cy="486.555" r="3.355" fill="#58e24b"/><circle cx="352.33500000000004" cy="486.555" r="3.355" fill="#f4e1fb"/><circle cx="385.885" cy="486.555" r="3.355" fill="#b3f2ad"/><circle cx="419.445" cy="486.555" r="3.355" fill="#ffff5f"/><circle cx="452.995" cy="486.555" r="3.355" fill="#e3b2f4"/><circle cx="486.555" cy="486.555" r="3.355" fill="#fffefe"/><circle cx="520.115" cy="486.555" r="3.355" fill="#e4b4f4"/><circle cx="553.665" cy="486.555" r="3.355" fill="#8dceff"/><circle cx="587.225" cy="486.555" r="3.355" fill="#ff4e4e"/><circle cx="620.775" cy="486.555" r="3.355" fill="#edcef8"/><circle cx="654.335" cy="486.555" r="3.355" fill="#ffffbd"/><circle cx="687.885" cy="486.555" r="3.355" fill="#ff1212"/><circle cx="721.445" cy="486.555" r="3.355" fill="#fffeff"/><circle cx="754.995" cy="486.555" r="3.355" fill="#ff7373"/><circle cx="788.5550000000001" cy="486.555" r="3.355" fill="#ffeded"/><circle cx="822.115" cy="486.555" r="3.355" fill="#d07eec"/><circle cx="855.665" cy="486.555" r="3.355" fill="#2ca4ff"/><circle cx="889.225" cy="486.555" r="3.355" fill="#ff6b6b"/><circle cx="922.775" cy="486.555" r="3.355" fill="#33a7ff"/><circle cx="956.335" cy="486.555" r="3.355" fill="#ffffb3"/><circle cx="989.885" cy="486.555" r="3.355" fill="#a9daff"/><circle cx="1023.445" cy="486.555" r="3.355" fill="#edfcec"/><circle cx="1056.9950000000001" cy="486.555" r="3.355" fill="#0091ff"/><circle cx="1090.555" cy="486.555" r="3.355" fill="#4db2ff"/><circle cx="1124.115" cy="486.555" r="3.355" fill="#5ce34f"/><circle cx="1157.665" cy="486.555" r="3.355" fill="#d790ef"/><circle cx="1191.225" cy="486.555" r="3.355" fill="#ffffb8"/><circle cx="1224.775" cy="486.555" r="3.355" fill="#ce77eb"/><circle cx="1258.335" cy="486.555" r="3.355" fill="#7ae870"/><circle cx="1291.885" cy="486.555" r="3.355" fill="#b5dfff"/><circle cx="1325.445" cy="486.555" r="3.355" fill="#ff1010"/><circle cx="1358.9950000000001" cy="486.555" r="3.355" fill="#ffffaa"/><circle cx="1392.555" cy="486.555" r="3.355" fill="#ff4747"/><circle cx="1426.115" cy="486.555" r="3.355" fill="#ff8b8b"/><circle cx="1459.665" cy="486.555" r="3.355" fill="#ca6dea"/><circle cx="1493.225" cy="486.555" r="3.355" fill="#ff6a6a"/><circle cx="16.775" cy="520.115" r="3.355" fill="#fbf3fd"/><circle cx="50.334999999999994" cy="520.115" r="3.355" fill="#a1d6ff"/><circle cx="83.885" cy="520.115" r="3.355" fill="#ffffb2"/><circle cx="117.44500000000001" cy="520.115" r="3.355" fill="#61e455"/><circle cx="150.99499999999998" cy="520.115" r="3.355" fill="#159aff"/><circle cx="184.55499999999998" cy="520.115" r="3.355" fill="#d489ee"/><circle cx="218.11499999999998" cy="520.115" r="3.355" fill="#fffff0"/><circle cx="251.665" cy="520.115" r="3.355" fill="#59b7ff"/><circle cx="285.225" cy="520.115" r="3.355" fill="#d07eec"/><circle cx="318.77500000000003" cy="520.115" r="3.355" fill="#c4f5bf"/><circle cx="352.33500000000004" cy="520.115" r="3.355" fill="#5fbaff"/><circle cx="385.885" cy="520.115" r="3.355" fill="#cce9ff"/><circle cx="419.445" cy="520.115" r="3.355" fill="#ddf0ff"/><circle cx="452.995" cy="520.115" r="3.355" fill="#2bdb1a"/><circle cx="486.555" cy="520.115" r="3.355" fill="#d1f7ce"/><circle cx="520.115" cy="520.115" r="3.355" fill="#ffa8a8"/><circle cx="553.665" cy="520.115" r="3.355" fill="#59b7ff"/><circle cx="587.225" cy="520.115" r="3.355" fill="#1a9cff"/><circle cx="620.775" cy="520.115" r="3.355" fill="#fffff6"/><circle cx="654.335" cy="520.115" r="3.355" fill="#ffff73"/><circle cx="687.885" cy="520.115" r="3.355" fill="#f2dcfa"/><circle cx="721.445" cy="520.115" r="3.355" fill="#fffff3"/><circle cx="754.995" cy="520.115" r="3.355" fill="#24da13"/><circle cx="788.5550000000001" cy="520.115" r="3.355" fill="#45df37"/><circle cx="822.115" cy="520.115" r="3.355" fill="#ffff7a"/><circle cx="855.665" cy="520.115" r="3.355" fill="#e5f4ff"/><circle cx="889.225" cy="520.115" r="3.355" fill="#ffffd2"/><circle cx="922.775" cy="520.115" r="3.355" fill="#ffffd0"/><circle cx="956.335" cy="520.115" r="3.355" fill="#ffff75"/><circle cx="989.885" cy="520.115" r="3.355" fill="#ffff49"/><circle cx="1023.445" cy="520.115" r="3.355" fill="#1c9dff"/><circle cx="1056.9950000000001" cy="520.115" r="3.355" fill="#fbf3fd"/><circle cx="1090.555" cy="520.115" r="3.355" fill="#4ab1ff"/><circle cx="1124.115" cy="520.115" r="3.355" fill="#ff3434"/><circle cx="1157.665" cy="520.115" r="3.355" fill="#f6e6fb"/><circle cx="1191.225" cy="520.115" r="3.355" fill="#ffffff"/><circle cx="1224.775" cy="520.115" r="3.355" fill="#52e144"/><circle cx="1258.335" cy="520.115" r="3.355" fill="#62bbff"/><circle cx="1291.885" cy="520.115" r="3.355" fill="#e9c3f6"/><circle cx="1325.445" cy="520.115" r="3.355" fill="#ffff02"/><circle cx="1358.9950000000001" cy="520.115" r="3.355" fill="#1c9dff"/><circle cx="1392.555" cy="520.115" r="3.355" fill="#64e458"/><circle cx="1426.115" cy="520.115" r="3.355" fill="#f7e9fc"/><circle cx="1459.665" cy="520.115" r="3.355" fill="#89eb80"/><circle cx="1493.225" cy="520.115" r="3.355" fill="#42df34"/><circle cx="16.775" cy="553.665" r="3.355" fill="#d385ee"/><circle cx="50.334999999999994" cy="553.665" r="3.355" fill="#f3fdf2"/><circle cx="83.885" cy="553.665" r="3.355" fill="#d58bee"/><circle cx="117.44500000000001" cy="553.665" r="3.355" fill="#c4f5c0"/><circle cx="150.99499999999998" cy="553.665" r="3.355" fill="#6fc1ff"/><circle cx="184.55499999999998" cy="553.665" r="3.355" fill="#eecff8"/><circle cx="218.11499999999998" cy="553.665" r="3.355" fill="#9eee97"/><circle cx="251.665" cy="553.665" r="3.355" fill="#da99f0"/><circle cx="285.225" cy="553.665" r="3.355" fill="#e7f5ff"/><circle cx="318.77500000000003" cy="553.665" r="3.355" fill="#caf6c6"/><circle cx="352.33500000000004" cy="553.665" r="3.355" fill="#ff4e4e"/><circle cx="385.885" cy="553.665" r="3.355" fill="#dfa8f2"/><circle cx="419.445" cy="553.665" r="3.355" fill="#ffff47"/><circle cx="452.995" cy="553.665" r="3.355" fill="#ff9797"/><circle cx="486.555" cy="553.665" r="3.355" fill="#edcef8"/><circle cx="520.115" cy="553.665" r="3.355" fill="#efd3f9"/><circle cx="553.665" cy="553.665" r="3.355" fill="#ffffbe"/><circle cx="587.225" cy="553.665" r="3.355" fill="#faf2fd"/><circle cx="620.775" cy="553.665" r="3.355" fill="#22d911"/><circle cx="654.335" cy="553.665" r="3.355" fill="#ffc8c8"/><circle cx="687.885" cy="553.665" r="3.355" fill="#ff5151"/><circle cx="721.445" cy="553.665" r="3.355" fill="#f3ddfa"/><circle cx="754.995" cy="553.665" r="3.355" fill="#ffff57"/><circle cx="788.5550000000001" cy="553.665" r="3.355" fill="#24a1ff"/><circle cx="822.115" cy="553.665" r="3.355" fill="#fcf8fe"/><circle cx="855.665" cy="553.665" r="3.355" fill="#edcdf8"/><circle cx="889.225" cy="553.665" r="3.355" fill="#2bdb1b"/><circle cx="922.775" cy="553.665" r="3.355" fill="#a2d7ff"/><circle cx="956.335" cy="553.665" r="3.355" fill="#ff1717"/><circle cx="989.885" cy="553.665" r="3.355" fill="#63bcff"/><circle cx="1023.445" cy="553.665" r="3.355" fill="#ffff72"/><circle cx="1056.9950000000001" cy="553.665" r="3.355" fill="#ffc7c7"/><circle cx="1090.555" cy="553.665" r="3.355" fill="#ffffd0"/><circle cx="1124.115" cy="553.665" r="3.355" fill="#179bff"/><circle cx="1157.665" cy="553.665" r="3.355" fill="#ebc9f7"/><circle cx="1191.225" cy="553.665" r="3.355" fill="#eed0f8"/><circle cx="1224.775" cy="553.665" r="3.355" fill="#27da17"/><circle cx="1258.335" cy="553.665" r="3.355" fill="#f8ebfc"/><circle cx="1291.885" cy="553.665" r="3.355" fill="#44df35"/><circle cx="1325.445" cy="553.665" r="3.355" fill="#ce79ec"/><circle cx="1358.9950000000001" cy="553.665" r="3.355" fill="#fffefe"/><circle cx="1392.555" cy="553.665" r="3.355" fill="#faf1fd"/><circle cx="1426.115" cy="553.665" r="3.355" fill="#ffff04"/><circle cx="1459.665" cy="553.665" r="3.355" fill="#ffffe8"/><circle cx="1493.225" cy="553.665" r="3.355" fill="#cd75eb"/></g></svg>