<?xml version="1.0" standalone="no"?><svg xmlns:xlink="http://www.w3.org/1999/xlink" xmlns="http://www.w3.org/2000/svg" viewBox="0 0 1000 999.9999999999999" preserveAspectRatio="xMaxYMax slice"><g transform="scale(1.152073732718894)"><rect x="0" y="0" width="868" height="868" fill="#ffffff"/><circle cx="18.875" cy="18.875" r="3.775" fill="#ff00ff"/><circle cx="56.605" cy="18.875" r="3.775" fill="#0091ff"/><circle cx="94.345" cy="18.875" r="3.775" fill="#ff00ff"/><circle cx="132.085" cy="18.875" r="3.775" fill="#ff00ff"/><circle cx="169.82500000000002" cy="18.875" r="3.775" fill="#00ff00"/><circle cx="207.565" cy="18.875" r="3.775" fill="#00ff00"/><circle cx="245.305" cy="18.875" r="3.775" fill="#ff00ff"/><circle cx="283.04499999999996" cy="18.875" r="3.775" fill="#0091ff"/><circle cx="320.78499999999997" cy="18.875" r="3.775" fill="#ff0000"/><circle cx="358.525" cy="18.875" r="3.775" fill="#0091ff"/><circle cx="396.265" cy="18.875" r="3.775" fill="#0091ff"/><circle cx="434.005" cy="18.875" r="3.775" fill="#ff00ff"/><circle cx="471.745" cy="18.875" r="3.775" fill="#0091ff"/><circle cx="509.47499999999997" cy="18.875" r="3.775" fill="#ff0000"/><circle cx="547.215" cy="18.875" r="3.775" fill="#ff00ff"/><circle cx="584.9549999999999" cy="18.875" r="3.775" fill="#00ff00"/><circle cx="622.6949999999999" cy="18.875" r="3.775" fill="#00ff00"/><circle cx="660.435" cy="18.875" r="3.775" fill="#00ff00"/><circle cx="698.175" cy="18.875" r="3.775" fill="#0091ff"/><circle cx="735.915" cy="18.875" r="3.775" fill="#00ff00"/><circle cx="773.655" cy="18.875" r="3.775" fill="#00ff00"/><circle cx="811.395" cy="18.875" r="3.775" fill="#ff0000"/><circle cx="849.135" cy="18.875" r="3.775" fill="#ff00ff"/><circle cx="18.875" cy="56.605" r="3.775" fill="#ff0000"/><circle cx="56.61" cy="56.61" r="3.94" fill="#0091ff"/><circle cx="94.355" cy="56.614999999999995" r="4.105" fill="#ff00ff"/><circle cx="132.08499999999998" cy="56.605000000000004" r="4.265" fill="#ff0000"/><circle cx="169.82" cy="56.61" r="4.43" fill="#0091ff"/><circle cx="207.565" cy="56.605" r="4.595" fill="#ff0000"/><circle cx="245.29999999999998" cy="56.61" r="4.76" fill="#0091ff"/><circle cx="283.045" cy="56.605" r="4.925" fill="#0091ff"/><circle cx="320.78" cy="56.61" r="5.09" fill="#ff00ff"/><circle cx="358.525" cy="56.615" r="5.255" fill="#00ff00"/><circle cx="396.26000000000005" cy="56.61" r="5.35" fill="#00ff00"/><circle cx="434" cy="56.61" r="5.35" fill="#00ff00"/><circle cx="471.74" cy="56.61" r="5.35" fill="#00ff00"/><circle cx="509.48" cy="56.61" r="5.35" fill="#ff00ff"/><circle cx="547.215" cy="56.615" r="5.255" fill="#ff00ff"/><circle cx="584.96" cy="56.61" r="5.09" fill="#00ff00"/><circle cx="622.6949999999999" cy="56.605" r="4.925" fill="#ff0000"/><circle cx="660.43" cy="56.61" r="4.76" fill="#00ff00"/><circle cx="698.1750000000001" cy="56.605" r="4.595" fill="#ff0000"/><circle cx="735.91" cy="56.61" r="4.43" fill="#ff00ff"/><circle cx="773.655" cy="56.605000000000004" r="4.265" fill="#00ff00"/><circle cx="811.395" cy="56.614999999999995" r="4.105" fill="#0091ff"/><circle cx="849.1300000000001" cy="56.61" r="3.94" fill="#0091ff"/><circle cx="18.875" cy="94.345" r="3.775" fill="#0091ff"/><circle cx="56.614999999999995" cy="94.355" r="4.105" fill="#0091ff"/><circle cx="94.35" cy="94.35" r="4.43" fill="#ff00ff"/><circle cx="132.09" cy="94.35000000000001" r="4.76" fill="#ff00ff"/><circle cx="169.83" cy="94.35000000000001" r="5.09" fill="#ff0000"/><circle cx="207.57" cy="94.35000000000001" r="5.42" fill="#0091ff"/><circle cx="245.305" cy="94.345" r="5.745" fill="#0091ff"/><circle cx="283.045" cy="94.345" r="6.075" fill="#ff0000"/><circle cx="320.78499999999997" cy="94.345" r="6.405" fill="#0091ff"/><circle cx="358.52500000000003" cy="94.355" r="6.735" fill="#ff00ff"/><circle cx="396.265" cy="94.345" r="6.925" fill="#ff0000"/><circle cx="434.005" cy="94.345" r="6.925" fill="#ff00ff"/><circle cx="471.735" cy="94.345" r="6.925" fill="#ff00ff"/><circle cx="509.475" cy="94.345" r="6.925" fill="#00ff00"/><circle cx="547.215" cy="94.355" r="6.735" fill="#ff00ff"/><circle cx="584.9549999999999" cy="94.345" r="6.405" fill="#0091ff"/><circle cx="622.695" cy="94.345" r="6.075" fill="#ff00ff"/><circle cx="660.4350000000001" cy="94.345" r="5.745" fill="#00ff00"/><circle cx="698.18" cy="94.35000000000001" r="5.42" fill="#0091ff"/><circle cx="735.9100000000001" cy="94.35000000000001" r="5.09" fill="#ff0000"/><circle cx="773.65" cy="94.35000000000001" r="4.76" fill="#ff0000"/><circle cx="811.39" cy="94.35" r="4.43" fill="#ff0000"/><circle cx="849.135" cy="94.355" r="4.105" fill="#0091ff"/><circle cx="18.875" cy="132.085" r="3.775" fill="#ff00ff"/><circle cx="56.605000000000004" cy="132.08499999999998" r="4.265" fill="#ff00ff"/><circle cx="94.35000000000001" cy="132.09" r="4.76" fill="#00ff00"/><circle cx="132.085" cy="132.085" r="5.255" fill="#ff00ff"/><circle cx="169.82500000000002" cy="132.085" r="5.745" fill="#ff0000"/><circle cx="207.57000000000002" cy="132.09" r="6.24" fill="#00ff00"/><circle cx="245.305" cy="132.085" r="6.735" fill="#ff0000"/><circle cx="283.045" cy="132.085" r="7.225" fill="#00ff00"/><circle cx="320.78000000000003" cy="132.09" r="7.72" fill="#ff0000"/><circle cx="358.52" cy="132.09" r="8.21" fill="#ff00ff"/><circle cx="396.26" cy="132.09" r="8.5" fill="#ff00ff"/><circle cx="434" cy="132.09" r="8.5" fill="#00ff00"/><circle cx="471.74" cy="132.09" r="8.5" fill="#ff00ff"/><circle cx="509.48" cy="132.09" r="8.5" fill="#00ff00"/><circle cx="547.22" cy="132.09" r="8.21" fill="#0091ff"/><circle cx="584.96" cy="132.09" r="7.72" fill="#0091ff"/><circle cx="622.695" cy="132.085" r="7.225" fill="#ff00ff"/><circle cx="660.4350000000001" cy="132.085" r="6.735" fill="#ff00ff"/><circle cx="698.17" cy="132.09" r="6.24" fill="#ff0000"/><circle cx="735.915" cy="132.085" r="5.745" fill="#ff0000"/><circle cx="773.655" cy="132.085" r="5.255" fill="#ff00ff"/><circle cx="811.39" cy="132.09" r="4.76" fill="#ff00ff"/><circle cx="849.125" cy="132.08499999999998" r="4.265" fill="#00ff00"/><circle cx="18.875" cy="169.82500000000002" r="3.775" fill="#ff0000"/><circle cx="56.61" cy="169.82" r="4.43" fill="#ff0000"/><circle cx="94.35000000000001" cy="169.83" r="5.09" fill="#ff0000"/><circle cx="132.085" cy="169.82500000000002" r="5.745" fill="#ff00ff"/><circle cx="169.825" cy="169.825" r="6.405" fill="#0091ff"/><circle cx="207.56" cy="169.82" r="7.06" fill="#ff00ff"/><circle cx="245.31" cy="169.83" r="7.72" fill="#ff00ff"/><circle cx="283.045" cy="169.825" r="8.375" fill="#0091ff"/><circle cx="320.785" cy="169.825" r="9.035" fill="#ff00ff"/><circle cx="358.52" cy="169.82" r="9.69" fill="#ff00ff"/><circle cx="396.265" cy="169.825" r="10.075" fill="#00ff00"/><circle cx="434.005" cy="169.825" r="10.075" fill="#0091ff"/><circle cx="471.735" cy="169.825" r="10.075" fill="#ff0000"/><circle cx="509.47499999999997" cy="169.825" r="10.075" fill="#ff00ff"/><circle cx="547.22" cy="169.82" r="9.69" fill="#ff0000"/><circle cx="584.9549999999999" cy="169.825" r="9.035" fill="#0091ff"/><circle cx="622.695" cy="169.825" r="8.375" fill="#00ff00"/><circle cx="660.44" cy="169.83" r="7.72" fill="#ff00ff"/><circle cx="698.17" cy="169.82" r="7.06" fill="#ff0000"/><circle cx="735.915" cy="169.825" r="6.405" fill="#0091ff"/><circle cx="773.655" cy="169.82500000000002" r="5.745" fill="#00ff00"/><circle cx="811.39" cy="169.83" r="5.09" fill="#ff0000"/><circle cx="849.13" cy="169.82" r="4.43" fill="#0091ff"/><circle cx="18.875" cy="207.565" r="3.775" fill="#0091ff"/><circle cx="56.605" cy="207.565" r="4.595" fill="#ff00ff"/><circle cx="94.35000000000001" cy="207.57" r="5.42" fill="#0091ff"/><circle cx="132.09" cy="207.57000000000002" r="6.24" fill="#ff0000"/><circle cx="169.82" cy="207.56" r="7.06" fill="#0091ff"/><circle cx="207.565" cy="207.565" r="7.885" fill="#0091ff"/><circle cx="245.305" cy="207.56500000000003" r="8.705" fill="#0091ff"/><circle cx="283.04499999999996" cy="207.565" r="9.525" fill="#00ff00"/><circle cx="320.78000000000003" cy="207.57" r="10.35" fill="#00ff00"/><circle cx="358.52000000000004" cy="207.55999999999997" r="11.17" fill="#ff00ff"/><circle cx="396.26" cy="207.57" r="11.65" fill="#00ff00"/><circle cx="434" cy="207.57" r="11.65" fill="#ff00ff"/><circle cx="471.73999999999995" cy="207.57" r="11.65" fill="#ff0000"/><circle cx="509.47999999999996" cy="207.57" r="11.65" fill="#00ff00"/><circle cx="547.2199999999999" cy="207.55999999999997" r="11.17" fill="#ff0000"/><circle cx="584.96" cy="207.57" r="10.35" fill="#0091ff"/><circle cx="622.6949999999999" cy="207.565" r="9.525" fill="#0091ff"/><circle cx="660.4350000000001" cy="207.56500000000003" r="8.705" fill="#ff0000"/><circle cx="698.175" cy="207.565" r="7.885" fill="#ff0000"/><circle cx="735.91" cy="207.56" r="7.06" fill="#00ff00"/><circle cx="773.65" cy="207.57000000000002" r="6.24" fill="#ff0000"/><circle cx="811.39" cy="207.57" r="5.42" fill="#ff00ff"/><circle cx="849.125" cy="207.565" r="4.595" fill="#ff0000"/><circle cx="18.875" cy="245.305" r="3.775" fill="#0091ff"/><circle cx="56.61" cy="245.29999999999998" r="4.76" fill="#ff00ff"/><circle cx="94.345" cy="245.305" r="5.745" fill="#ff00ff"/><circle cx="132.085" cy="245.305" r="6.735" fill="#ff00ff"/><circle cx="169.83" cy="245.31" r="7.72" fill="#ff0000"/><circle cx="207.56500000000003" cy="245.305" r="8.705" fill="#0091ff"/><circle cx="245.3" cy="245.3" r="9.69" fill="#0091ff"/><circle cx="283.045" cy="245.305" r="10.675" fill="#00ff00"/><circle cx="320.785" cy="245.30499999999998" r="11.665" fill="#ff0000"/><circle cx="358.52" cy="245.3" r="12.65" fill="#ff0000"/><circle cx="396.26500000000004" cy="245.305" r="13.225" fill="#ff00ff"/><circle cx="433.995" cy="245.305" r="13.225" fill="#0091ff"/><circle cx="471.735" cy="245.305" r="13.225" fill="#00ff00"/><circle cx="509.475" cy="245.305" r="13.225" fill="#ff0000"/><circle cx="547.22" cy="245.3" r="12.65" fill="#ff00ff"/><circle cx="584.9549999999999" cy="245.30499999999998" r="11.665" fill="#ff0000"/><circle cx="622.6949999999999" cy="245.305" r="10.675" fill="#ff0000"/><circle cx="660.4300000000001" cy="245.3" r="9.69" fill="#0091ff"/><circle cx="698.1750000000001" cy="245.305" r="8.705" fill="#ff0000"/><circle cx="735.9100000000001" cy="245.31" r="7.72" fill="#ff0000"/><circle cx="773.655" cy="245.305" r="6.735" fill="#ff0000"/><circle cx="811.385" cy="245.305" r="5.745" fill="#00ff00"/><circle cx="849.13" cy="245.29999999999998" r="4.76" fill="#0091ff"/><circle cx="18.875" cy="283.04499999999996" r="3.775" fill="#0091ff"/><circle cx="56.605" cy="283.045" r="4.925" fill="#0091ff"/><circle cx="94.345" cy="283.045" r="6.075" fill="#ff0000"/><circle cx="132.085" cy="283.045" r="7.225" fill="#0091ff"/><circle cx="169.825" cy="283.045" r="8.375" fill="#0091ff"/><circle cx="207.565" cy="283.04499999999996" r="9.525" fill="#ff0000"/><circle cx="245.305" cy="283.045" r="10.675" fill="#ff00ff"/><circle cx="283.05" cy="283.05" r="11.83" fill="#00ff00"/><circle cx="320.78000000000003" cy="283.04" r="12.98" fill="#00ff00"/><circle cx="358.52" cy="283.04" r="14.13" fill="#0091ff"/><circle cx="396.26" cy="283.04" r="14.8" fill="#ff0000"/><circle cx="434" cy="283.04" r="14.8" fill="#00ff00"/><circle cx="471.74" cy="283.04" r="14.8" fill="#00ff00"/><circle cx="509.48" cy="283.04" r="14.8" fill="#00ff00"/><circle cx="547.22" cy="283.04" r="14.13" fill="#ff0000"/><circle cx="584.96" cy="283.04" r="12.98" fill="#00ff00"/><circle cx="622.7" cy="283.05" r="11.83" fill="#0091ff"/><circle cx="660.435" cy="283.045" r="10.675" fill="#00ff00"/><circle cx="698.175" cy="283.04499999999996" r="9.525" fill="#ff00ff"/><circle cx="735.915" cy="283.045" r="8.375" fill="#ff0000"/><circle cx="773.655" cy="283.045" r="7.225" fill="#00ff00"/><circle cx="811.3950000000001" cy="283.045" r="6.075" fill="#0091ff"/><circle cx="849.135" cy="283.045" r="4.925" fill="#0091ff"/><circle cx="18.875" cy="320.78499999999997" r="3.775" fill="#ff0000"/><circle cx="56.61" cy="320.78" r="5.09" fill="#0091ff"/><circle cx="94.345" cy="320.78499999999997" r="6.405" fill="#ff0000"/><circle cx="132.09" cy="320.78000000000003" r="7.72" fill="#0091ff"/><circle cx="169.825" cy="320.785" r="9.035" fill="#ff00ff"/><circle cx="207.57" cy="320.78000000000003" r="10.35" fill="#0091ff"/><circle cx="245.30499999999998" cy="320.785" r="11.665" fill="#00ff00"/><circle cx="283.04" cy="320.78000000000003" r="12.98" fill="#ff0000"/><circle cx="320.785" cy="320.785" r="14.295" fill="#00ff00"/><circle cx="358.52000000000004" cy="320.78000000000003" r="15.61" fill="#0091ff"/><circle cx="396.265" cy="320.785" r="16.375" fill="#0091ff"/><circle cx="433.995" cy="320.785" r="16.375" fill="#0091ff"/><circle cx="471.735" cy="320.785" r="16.375" fill="#00ff00"/><circle cx="509.475" cy="320.785" r="16.375" fill="#ff0000"/><circle cx="547.22" cy="320.78000000000003" r="15.61" fill="#0091ff"/><circle cx="584.9549999999999" cy="320.785" r="14.295" fill="#0091ff"/><circle cx="622.7" cy="320.78000000000003" r="12.98" fill="#ff00ff"/><circle cx="660.435" cy="320.785" r="11.665" fill="#00ff00"/><circle cx="698.1800000000001" cy="320.78000000000003" r="10.35" fill="#ff00ff"/><circle cx="735.915" cy="320.785" r="9.035" fill="#0091ff"/><circle cx="773.65" cy="320.78000000000003" r="7.72" fill="#ff00ff"/><circle cx="811.395" cy="320.78499999999997" r="6.405" fill="#ff0000"/><circle cx="849.13" cy="320.78" r="5.09" fill="#ff00ff"/><circle cx="18.875" cy="358.525" r="3.775" fill="#0091ff"/><circle cx="56.615" cy="358.525" r="5.255" fill="#00ff00"/><circle cx="94.355" cy="358.52500000000003" r="6.735" fill="#0091ff"/><circle cx="132.09" cy="358.52" r="8.21" fill="#ff0000"/><circle cx="169.82" cy="358.52" r="9.69" fill="#ff0000"/><circle cx="207.55999999999997" cy="358.52000000000004" r="11.17" fill="#0091ff"/><circle cx="245.3" cy="358.52" r="12.65" fill="#ff0000"/><circle cx="283.04" cy="358.52" r="14.13" fill="#00ff00"/><circle cx="320.78000000000003" cy="358.52000000000004" r="15.61" fill="#00ff00"/><circle cx="358.52" cy="358.52" r="17.09" fill="#0091ff"/><circle cx="396.26" cy="358.52" r="17.95" fill="#ff00ff"/><circle cx="434" cy="358.52" r="17.95" fill="#00ff00"/><circle cx="471.74" cy="358.52" r="17.95" fill="#ff0000"/><circle cx="509.47999999999996" cy="358.52" r="17.95" fill="#00ff00"/><circle cx="547.22" cy="358.52" r="17.09" fill="#ff0000"/><circle cx="584.96" cy="358.52000000000004" r="15.61" fill="#ff00ff"/><circle cx="622.7" cy="358.52" r="14.13" fill="#00ff00"/><circle cx="660.43" cy="358.52" r="12.65" fill="#0091ff"/><circle cx="698.17" cy="358.52000000000004" r="11.17" fill="#0091ff"/><circle cx="735.9100000000001" cy="358.52" r="9.69" fill="#ff0000"/><circle cx="773.6500000000001" cy="358.52" r="8.21" fill="#00ff00"/><circle cx="811.395" cy="358.52500000000003" r="6.735" fill="#00ff00"/><circle cx="849.135" cy="358.525" r="5.255" fill="#0091ff"/><circle cx="18.875" cy="396.265" r="3.775" fill="#ff00ff"/><circle cx="56.61" cy="396.26000000000005" r="5.35" fill="#0091ff"/><circle cx="94.345" cy="396.265" r="6.925" fill="#0091ff"/><circle cx="132.09" cy="396.26" r="8.5" fill="#ff0000"/><circle cx="169.825" cy="396.265" r="10.075" fill="#00ff00"/><circle cx="207.57" cy="396.26" r="11.65" fill="#00ff00"/><circle cx="245.305" cy="396.26500000000004" r="13.225" fill="#00ff00"/><circle cx="283.04" cy="396.26" r="14.8" fill="#ff00ff"/><circle cx="320.785" cy="396.265" r="16.375" fill="#0091ff"/><circle cx="358.52" cy="396.26" r="17.95" fill="#00ff00"/><circle cx="396.26" cy="396.26" r="18.87" fill="#00ff00"/><circle cx="434" cy="396.26" r="18.87" fill="#ff0000"/><circle cx="471.74" cy="396.26" r="18.87" fill="#ff00ff"/><circle cx="509.48" cy="396.26" r="18.87" fill="#0091ff"/><circle cx="547.22" cy="396.26" r="17.95" fill="#00ff00"/><circle cx="584.955" cy="396.265" r="16.375" fill="#ff00ff"/><circle cx="622.6999999999999" cy="396.26" r="14.8" fill="#ff00ff"/><circle cx="660.4350000000001" cy="396.26500000000004" r="13.225" fill="#ff0000"/><circle cx="698.17" cy="396.26" r="11.65" fill="#0091ff"/><circle cx="735.9150000000001" cy="396.265" r="10.075" fill="#ff00ff"/><circle cx="773.65" cy="396.26" r="8.5" fill="#00ff00"/><circle cx="811.395" cy="396.265" r="6.925" fill="#ff00ff"/><circle cx="849.13" cy="396.26000000000005" r="5.35" fill="#00ff00"/><circle cx="18.875" cy="434.005" r="3.775" fill="#0091ff"/><circle cx="56.61" cy="434" r="5.35" fill="#ff0000"/><circle cx="94.345" cy="434.005" r="6.925" fill="#0091ff"/><circle cx="132.09" cy="434" r="8.5" fill="#0091ff"/><circle cx="169.825" cy="434.005" r="10.075" fill="#0091ff"/><circle cx="207.57" cy="434" r="11.65" fill="#ff0000"/><circle cx="245.305" cy="433.995" r="13.225" fill="#0091ff"/><circle cx="283.04" cy="434" r="14.8" fill="#0091ff"/><circle cx="320.785" cy="433.995" r="16.375" fill="#ff0000"/><circle cx="358.52" cy="434" r="17.95" fill="#00ff00"/><circle cx="396.26" cy="434" r="18.87" fill="#00ff00"/><circle cx="434" cy="434" r="18.87" fill="#00ff00"/><circle cx="471.74" cy="434" r="18.87" fill="#ff00ff"/><circle cx="509.48" cy="434" r="18.87" fill="#00ff00"/><circle cx="547.22" cy="434" r="17.95" fill="#0091ff"/><circle cx="584.955" cy="433.995" r="16.375" fill="#ff0000"/><circle cx="622.6999999999999" cy="434" r="14.8" fill="#ff00ff"/><circle cx="660.4350000000001" cy="433.995" r="13.225" fill="#00ff00"/><circle cx="698.17" cy="434" r="11.65" fill="#0091ff"/><circle cx="735.9150000000001" cy="434.005" r="10.075" fill="#00ff00"/><circle cx="773.65" cy="434" r="8.5" fill="#00ff00"/><circle cx="811.395" cy="434.005" r="6.925" fill="#ff00ff"/><circle cx="849.13" cy="434" r="5.35" fill="#ff0000"/><circle cx="18.875" cy="471.745" r="3.775" fill="#00ff00"/><circle cx="56.61" cy="471.74" r="5.35" fill="#0091ff"/><circle cx="94.345" cy="471.735" r="6.925" fill="#0091ff"/><circle cx="132.09" cy="471.74" r="8.5" fill="#00ff00"/><circle cx="169.825" cy="471.735" r="10.075" fill="#ff00ff"/><circle cx="207.57" cy="471.73999999999995" r="11.65" fill="#0091ff"/><circle cx="245.305" cy="471.735" r="13.225" fill="#0091ff"/><circle cx="283.04" cy="471.74" r="14.8" fill="#00ff00"/><circle cx="320.785" cy="471.735" r="16.375" fill="#ff0000"/><circle cx="358.52" cy="471.74" r="17.95" fill="#0091ff"/><circle cx="396.26" cy="471.74" r="18.87" fill="#ff00ff"/><circle cx="434" cy="471.74" r="18.87" fill="#ff00ff"/><circle cx="471.74" cy="471.74" r="18.87" fill="#00ff00"/><circle cx="509.48" cy="471.74" r="18.87" fill="#00ff00"/><circle cx="547.22" cy="471.74" r="17.95" fill="#ff0000"/><circle cx="584.955" cy="471.735" r="16.375" fill="#ff00ff"/><circle cx="622.6999999999999" cy="471.74" r="14.8" fill="#ff0000"/><circle cx="660.4350000000001" cy="471.735" r="13.225" fill="#ff00ff"/><circle cx="698.17" cy="471.73999999999995" r="11.65" fill="#ff00ff"/><circle cx="735.9150000000001" cy="471.735" r="10.075" fill="#ff00ff"/><circle cx="773.65" cy="471.74" r="8.5" fill="#ff0000"/><circle cx="811.395" cy="471.735" r="6.925" fill="#0091ff"/><circle cx="849.13" cy="471.74" r="5.35" fill="#00ff00"/><circle cx="18.875" cy="509.47499999999997" r="3.775" fill="#ff0000"/><circle cx="56.61" cy="509.48" r="5.35" fill="#00ff00"/><circle cx="94.345" cy="509.475" r="6.925" fill="#ff00ff"/><circle cx="132.09" cy="509.48" r="8.5" fill="#ff00ff"/><circle cx="169.825" cy="509.47499999999997" r="10.075" fill="#0091ff"/><circle cx="207.57" cy="509.47999999999996" r="11.65" fill="#00ff00"/><circle cx="245.305" cy="509.475" r="13.225" fill="#ff00ff"/><circle cx="283.04" cy="509.48" r="14.8" fill="#00ff00"/><circle cx="320.785" cy="509.475" r="16.375" fill="#00ff00"/><circle cx="358.52" cy="509.47999999999996" r="17.95" fill="#0091ff"/><circle cx="396.26" cy="509.48" r="18.87" fill="#0091ff"/><circle cx="434" cy="509.48" r="18.87" fill="#ff00ff"/><circle cx="471.74" cy="509.48" r="18.87" fill="#ff0000"/><circle cx="509.48" cy="509.48" r="18.87" fill="#00ff00"/><circle cx="547.22" cy="509.47999999999996" r="17.95" fill="#ff0000"/><circle cx="584.955" cy="509.475" r="16.375" fill="#00ff00"/><circle cx="622.6999999999999" cy="509.48" r="14.8" fill="#0091ff"/><circle cx="660.4350000000001" cy="509.475" r="13.225" fill="#0091ff"/><circle cx="698.17" cy="509.47999999999996" r="11.65" fill="#ff00ff"/><circle cx="735.9150000000001" cy="509.47499999999997" r="10.075" fill="#0091ff"/><circle cx="773.65" cy="509.48" r="8.5" fill="#ff0000"/><circle cx="811.395" cy="509.475" r="6.925" fill="#ff0000"/><circle cx="849.13" cy="509.48" r="5.35" fill="#ff00ff"/><circle cx="18.875" cy="547.215" r="3.775" fill="#0091ff"/><circle cx="56.615" cy="547.215" r="5.255" fill="#0091ff"/><circle cx="94.355" cy="547.215" r="6.735" fill="#ff00ff"/><circle cx="132.09" cy="547.22" r="8.21" fill="#ff00ff"/><circle cx="169.82" cy="547.22" r="9.69" fill="#00ff00"/><circle cx="207.55999999999997" cy="547.2199999999999" r="11.17" fill="#ff00ff"/><circle cx="245.3" cy="547.22" r="12.65" fill="#0091ff"/><circle cx="283.04" cy="547.22" r="14.13" fill="#00ff00"/><circle cx="320.78000000000003" cy="547.22" r="15.61" fill="#00ff00"/><circle cx="358.52" cy="547.22" r="17.09" fill="#ff00ff"/><circle cx="396.26" cy="547.22" r="17.95" fill="#0091ff"/><circle cx="434" cy="547.22" r="17.95" fill="#ff00ff"/><circle cx="471.74" cy="547.22" r="17.95" fill="#ff00ff"/><circle cx="509.47999999999996" cy="547.22" r="17.95" fill="#0091ff"/><circle cx="547.22" cy="547.22" r="17.09" fill="#ff0000"/><circle cx="584.96" cy="547.22" r="15.61" fill="#0091ff"/><circle cx="622.7" cy="547.22" r="14.13" fill="#0091ff"/><circle cx="660.43" cy="547.22" r="12.65" fill="#00ff00"/><circle cx="698.17" cy="547.2199999999999" r="11.17" fill="#00ff00"/><circle cx="735.9100000000001" cy="547.22" r="9.69" fill="#0091ff"/><circle cx="773.6500000000001" cy="547.22" r="8.21" fill="#ff00ff"/><circle cx="811.395" cy="547.215" r="6.735" fill="#ff0000"/><circle cx="849.135" cy="547.215" r="5.255" fill="#00ff00"/><circle cx="18.875" cy="584.9549999999999" r="3.775" fill="#ff00ff"/><circle cx="56.61" cy="584.96" r="5.09" fill="#ff0000"/><circle cx="94.345" cy="584.9549999999999" r="6.405" fill="#00ff00"/><circle cx="132.09" cy="584.96" r="7.72" fill="#00ff00"/><circle cx="169.825" cy="584.9549999999999" r="9.035" fill="#ff00ff"/><circle cx="207.57" cy="584.96" r="10.35" fill="#0091ff"/><circle cx="245.30499999999998" cy="584.9549999999999" r="11.665" fill="#0091ff"/><circle cx="283.04" cy="584.96" r="12.98" fill="#ff0000"/><circle cx="320.785" cy="584.9549999999999" r="14.295" fill="#ff00ff"/><circle cx="358.52000000000004" cy="584.96" r="15.61" fill="#0091ff"/><circle cx="396.265" cy="584.955" r="16.375" fill="#0091ff"/><circle cx="433.995" cy="584.955" r="16.375" fill="#0091ff"/><circle cx="471.735" cy="584.955" r="16.375" fill="#ff0000"/><circle cx="509.475" cy="584.955" r="16.375" fill="#00ff00"/><circle cx="547.22" cy="584.96" r="15.61" fill="#00ff00"/><circle cx="584.9549999999999" cy="584.9549999999999" r="14.295" fill="#00ff00"/><circle cx="622.7" cy="584.96" r="12.98" fill="#00ff00"/><circle cx="660.435" cy="584.9549999999999" r="11.665" fill="#0091ff"/><circle cx="698.1800000000001" cy="584.96" r="10.35" fill="#ff00ff"/><circle cx="735.915" cy="584.9549999999999" r="9.035" fill="#0091ff"/><circle cx="773.65" cy="584.96" r="7.72" fill="#ff00ff"/><circle cx="811.395" cy="584.9549999999999" r="6.405" fill="#ff0000"/><circle cx="849.13" cy="584.96" r="5.09" fill="#ff00ff"/><circle cx="18.875" cy="622.6949999999999" r="3.775" fill="#0091ff"/><circle cx="56.605" cy="622.6949999999999" r="4.925" fill="#ff0000"/><circle cx="94.345" cy="622.695" r="6.075" fill="#00ff00"/><circle cx="132.085" cy="622.695" r="7.225" fill="#00ff00"/><circle cx="169.825" cy="622.695" r="8.375" fill="#ff00ff"/><circle cx="207.565" cy="622.6949999999999" r="9.525" fill="#ff00ff"/><circle cx="245.305" cy="622.6949999999999" r="10.675" fill="#ff00ff"/><circle cx="283.05" cy="622.7" r="11.83" fill="#ff00ff"/><circle cx="320.78000000000003" cy="622.7" r="12.98" fill="#00ff00"/><circle cx="358.52" cy="622.7" r="14.13" fill="#0091ff"/><circle cx="396.26" cy="622.6999999999999" r="14.8" fill="#0091ff"/><circle cx="434" cy="622.6999999999999" r="14.8" fill="#0091ff"/><circle cx="471.74" cy="622.6999999999999" r="14.8" fill="#0091ff"/><circle cx="509.48" cy="622.6999999999999" r="14.8" fill="#0091ff"/><circle cx="547.22" cy="622.7" r="14.13" fill="#0091ff"/><circle cx="584.96" cy="622.7" r="12.98" fill="#ff00ff"/><circle cx="622.7" cy="622.7" r="11.83" fill="#ff0000"/><circle cx="660.435" cy="622.6949999999999" r="10.675" fill="#ff0000"/><circle cx="698.175" cy="622.6949999999999" r="9.525" fill="#ff00ff"/><circle cx="735.915" cy="622.695" r="8.375" fill="#00ff00"/><circle cx="773.655" cy="622.695" r="7.225" fill="#00ff00"/><circle cx="811.3950000000001" cy="622.695" r="6.075" fill="#00ff00"/><circle cx="849.135" cy="622.6949999999999" r="4.925" fill="#ff00ff"/><circle cx="18.875" cy="660.435" r="3.775" fill="#ff0000"/><circle cx="56.61" cy="660.43" r="4.76" fill="#0091ff"/><circle cx="94.345" cy="660.4350000000001" r="5.745" fill="#0091ff"/><circle cx="132.085" cy="660.4350000000001" r="6.735" fill="#00ff00"/><circle cx="169.83" cy="660.44" r="7.72" fill="#0091ff"/><circle cx="207.56500000000003" cy="660.4350000000001" r="8.705" fill="#ff00ff"/><circle cx="245.3" cy="660.4300000000001" r="9.69" fill="#0091ff"/><circle cx="283.045" cy="660.435" r="10.675" fill="#00ff00"/><circle cx="320.785" cy="660.435" r="11.665" fill="#ff0000"/><circle cx="358.52" cy="660.43" r="12.65" fill="#ff00ff"/><circle cx="396.26500000000004" cy="660.4350000000001" r="13.225" fill="#0091ff"/><circle cx="433.995" cy="660.4350000000001" r="13.225" fill="#ff00ff"/><circle cx="471.735" cy="660.4350000000001" r="13.225" fill="#ff0000"/><circle cx="509.475" cy="660.4350000000001" r="13.225" fill="#00ff00"/><circle cx="547.22" cy="660.43" r="12.65" fill="#ff0000"/><circle cx="584.9549999999999" cy="660.435" r="11.665" fill="#ff0000"/><circle cx="622.6949999999999" cy="660.435" r="10.675" fill="#00ff00"/><circle cx="660.4300000000001" cy="660.4300000000001" r="9.69" fill="#ff00ff"/><circle cx="698.1750000000001" cy="660.4350000000001" r="8.705" fill="#00ff00"/><circle cx="735.9100000000001" cy="660.44" r="7.72" fill="#0091ff"/><circle cx="773.655" cy="660.4350000000001" r="6.735" fill="#ff00ff"/><circle cx="811.385" cy="660.4350000000001" r="5.745" fill="#0091ff"/><circle cx="849.13" cy="660.43" r="4.76" fill="#00ff00"/><circle cx="18.875" cy="698.175" r="3.775" fill="#ff00ff"/><circle cx="56.605" cy="698.1750000000001" r="4.595" fill="#00ff00"/><circle cx="94.35000000000001" cy="698.18" r="5.42" fill="#0091ff"/><circle cx="132.09" cy="698.17" r="6.24" fill="#ff0000"/><circle cx="169.82" cy="698.17" r="7.06" fill="#ff00ff"/><circle cx="207.565" cy="698.175" r="7.885" fill="#00ff00"/><circle cx="245.305" cy="698.1750000000001" r="8.705" fill="#00ff00"/><circle cx="283.04499999999996" cy="698.175" r="9.525" fill="#ff00ff"/><circle cx="320.78000000000003" cy="698.1800000000001" r="10.35" fill="#ff00ff"/><circle cx="358.52000000000004" cy="698.17" r="11.17" fill="#ff00ff"/><circle cx="396.26" cy="698.17" r="11.65" fill="#ff0000"/><circle cx="434" cy="698.17" r="11.65" fill="#ff00ff"/><circle cx="471.73999999999995" cy="698.17" r="11.65" fill="#0091ff"/><circle cx="509.47999999999996" cy="698.17" r="11.65" fill="#00ff00"/><circle cx="547.2199999999999" cy="698.17" r="11.17" fill="#0091ff"/><circle cx="584.96" cy="698.1800000000001" r="10.35" fill="#ff0000"/><circle cx="622.6949999999999" cy="698.175" r="9.525" fill="#0091ff"/><circle cx="660.4350000000001" cy="698.1750000000001" r="8.705" fill="#0091ff"/><circle cx="698.175" cy="698.175" r="7.885" fill="#ff00ff"/><circle cx="735.91" cy="698.17" r="7.06" fill="#ff00ff"/><circle cx="773.65" cy="698.17" r="6.24" fill="#ff00ff"/><circle cx="811.39" cy="698.18" r="5.42" fill="#0091ff"/><circle cx="849.125" cy="698.1750000000001" r="4.595" fill="#00ff00"/><circle cx="18.875" cy="735.915" r="3.775" fill="#00ff00"/><circle cx="56.61" cy="735.91" r="4.43" fill="#0091ff"/><circle cx="94.35000000000001" cy="735.9100000000001" r="5.09" fill="#ff00ff"/><circle cx="132.085" cy="735.915" r="5.745" fill="#00ff00"/><circle cx="169.825" cy="735.915" r="6.405" fill="#00ff00"/><circle cx="207.56" cy="735.91" r="7.06" fill="#00ff00"/><circle cx="245.31" cy="735.9100000000001" r="7.72" fill="#00ff00"/><circle cx="283.045" cy="735.915" r="8.375" fill="#00ff00"/><circle cx="320.785" cy="735.915" r="9.035" fill="#ff00ff"/><circle cx="358.52" cy="735.9100000000001" r="9.69" fill="#0091ff"/><circle cx="396.265" cy="735.9150000000001" r="10.075" fill="#ff0000"/><circle cx="434.005" cy="735.9150000000001" r="10.075" fill="#ff0000"/><circle cx="471.735" cy="735.9150000000001" r="10.075" fill="#00ff00"/><circle cx="509.47499999999997" cy="735.9150000000001" r="10.075" fill="#ff00ff"/><circle cx="547.22" cy="735.9100000000001" r="9.69" fill="#00ff00"/><circle cx="584.9549999999999" cy="735.915" r="9.035" fill="#ff00ff"/><circle cx="622.695" cy="735.915" r="8.375" fill="#00ff00"/><circle cx="660.44" cy="735.9100000000001" r="7.72" fill="#0091ff"/><circle cx="698.17" cy="735.91" r="7.06" fill="#ff00ff"/><circle cx="735.915" cy="735.915" r="6.405" fill="#0091ff"/><circle cx="773.655" cy="735.915" r="5.745" fill="#00ff00"/><circle cx="811.39" cy="735.9100000000001" r="5.09" fill="#00ff00"/><circle cx="849.13" cy="735.91" r="4.43" fill="#ff00ff"/><circle cx="18.875" cy="773.655" r="3.775" fill="#ff00ff"/><circle cx="56.605000000000004" cy="773.655" r="4.265" fill="#ff00ff"/><circle cx="94.35000000000001" cy="773.65" r="4.76" fill="#0091ff"/><circle cx="132.085" cy="773.655" r="5.255" fill="#00ff00"/><circle cx="169.82500000000002" cy="773.655" r="5.745" fill="#ff00ff"/><circle cx="207.57000000000002" cy="773.65" r="6.24" fill="#ff00ff"/><circle cx="245.305" cy="773.655" r="6.735" fill="#ff0000"/><circle cx="283.045" cy="773.655" r="7.225" fill="#ff0000"/><circle cx="320.78000000000003" cy="773.65" r="7.72" fill="#ff0000"/><circle cx="358.52" cy="773.6500000000001" r="8.21" fill="#ff00ff"/><circle cx="396.26" cy="773.65" r="8.5" fill="#ff0000"/><circle cx="434" cy="773.65" r="8.5" fill="#0091ff"/><circle cx="471.74" cy="773.65" r="8.5" fill="#ff00ff"/><circle cx="509.48" cy="773.65" r="8.5" fill="#ff00ff"/><circle cx="547.22" cy="773.6500000000001" r="8.21" fill="#ff00ff"/><circle cx="584.96" cy="773.65" r="7.72" fill="#00ff00"/><circle cx="622.695" cy="773.655" r="7.225" fill="#0091ff"/><circle cx="660.4350000000001" cy="773.655" r="6.735" fill="#ff00ff"/><circle cx="698.17" cy="773.65" r="6.24" fill="#00ff00"/><circle cx="735.915" cy="773.655" r="5.745" fill="#ff0000"/><circle cx="773.655" cy="773.655" r="5.255" fill="#ff0000"/><circle cx="811.39" cy="773.65" r="4.76" fill="#ff00ff"/><circle cx="849.125" cy="773.655" r="4.265" fill="#0091ff"/><circle cx="18.875" cy="811.395" r="3.775" fill="#00ff00"/><circle cx="56.614999999999995" cy="811.395" r="4.105" fill="#ff00ff"/><circle cx="94.35" cy="811.39" r="4.43" fill="#0091ff"/><circle cx="132.09" cy="811.39" r="4.76" fill="#ff00ff"/><circle cx="169.83" cy="811.39" r="5.09" fill="#ff00ff"/><circle cx="207.57" cy="811.39" r="5.42" fill="#ff00ff"/><circle cx="245.305" cy="811.385" r="5.745" fill="#ff00ff"/><circle cx="283.045" cy="811.3950000000001" r="6.075" fill="#ff00ff"/><circle cx="320.78499999999997" cy="811.395" r="6.405" fill="#ff0000"/><circle cx="358.52500000000003" cy="811.395" r="6.735" fill="#00ff00"/><circle cx="396.265" cy="811.395" r="6.925" fill="#ff00ff"/><circle cx="434.005" cy="811.395" r="6.925" fill="#0091ff"/><circle cx="471.735" cy="811.395" r="6.925" fill="#ff0000"/><circle cx="509.475" cy="811.395" r="6.925" fill="#ff00ff"/><circle cx="547.215" cy="811.395" r="6.735" fill="#0091ff"/><circle cx="584.9549999999999" cy="811.395" r="6.405" fill="#ff0000"/><circle cx="622.695" cy="811.3950000000001" r="6.075" fill="#ff00ff"/><circle cx="660.4350000000001" cy="811.385" r="5.745" fill="#0091ff"/><circle cx="698.18" cy="811.39" r="5.42" fill="#ff00ff"/><circle cx="735.9100000000001" cy="811.39" r="5.09" fill="#00ff00"/><circle cx="773.65" cy="811.39" r="4.76" fill="#ff00ff"/><circle cx="811.39" cy="811.39" r="4.43" fill="#ff0000"/><circle cx="849.135" cy="811.395" r="4.105" fill="#0091ff"/><circle cx="18.875" cy="849.135" r="3.775" fill="#ff00ff"/><circle cx="56.61" cy="849.1300000000001" r="3.94" fill="#ff0000"/><circle cx="94.355" cy="849.135" r="4.105" fill="#ff00ff"/><circle cx="132.08499999999998" cy="849.125" r="4.265" fill="#ff0000"/><circle cx="169.82" cy="849.13" r="4.43" fill="#0091ff"/><circle cx="207.565" cy="849.125" r="4.595" fill="#0091ff"/><circle cx="245.29999999999998" cy="849.13" r="4.76" fill="#0091ff"/><circle cx="283.045" cy="849.135" r="4.925" fill="#ff0000"/><circle cx="320.78" cy="849.13" r="5.09" fill="#00ff00"/><circle cx="358.525" cy="849.135" r="5.255" fill="#00ff00"/><circle cx="396.26000000000005" cy="849.13" r="5.35" fill="#0091ff"/><circle cx="434" cy="849.13" r="5.35" fill="#ff0000"/><circle cx="471.74" cy="849.13" r="5.35" fill="#ff00ff"/><circle cx="509.48" cy="849.13" r="5.35" fill="#0091ff"/><circle cx="547.215" cy="849.135" r="5.255" fill="#ff0000"/><circle cx="584.96" cy="849.13" r="5.09" fill="#ff00ff"/><circle cx="622.6949999999999" cy="849.135" r="4.925" fill="#0091ff"/><circle cx="660.43" cy="849.13" r="4.76" fill="#0091ff"/><circle cx="698.1750000000001" cy="849.125" r="4.595" fill="#ff0000"/><circle cx="735.91" cy="849.13" r="4.43" fill="#00ff00"/><circle cx="773.655" cy="849.125" r="4.265" fill="#ff0000"/><circle cx="811.395" cy="849.135" r="4.105" fill="#ff0000"/><circle cx="849.1300000000001" cy="849.1300000000001" r="3.94" fill="#ff0000"/></g></svg>